/* XPM */
static char *cakirR1730644856[] = {
/* columns rows colors chars-per-pixel */
"64 64 247 2 ",
"   c #050201",
".  c #0B0504",
"X  c #0D0905",
"o  c #0E0A09",
"O  c #0A0609",
"+  c #140402",
"@  c #1B0300",
"#  c #130904",
"$  c #1B0B03",
"%  c #11060A",
"&  c #120C0C",
"*  c #1B0D0A",
"=  c #1C120C",
"-  c #15120D",
";  c #140D11",
":  c #1C0B12",
">  c #161111",
",  c #1B1413",
"<  c #1D1A1A",
"1  c #1C1915",
"2  c #0E110D",
"3  c #220300",
"4  c #230C02",
"5  c #2B0C01",
"6  c #290905",
"7  c #320C02",
"8  c #3A0B00",
"9  c #2B1302",
"0  c #27150C",
"q  c #321303",
"w  c #3B1302",
"e  c #371909",
"r  c #231A14",
"t  c #2B1D13",
"y  c #231D1B",
"u  c #261716",
"i  c #371B13",
"p  c #200F15",
"a  c #3C220B",
"s  c #2C221C",
"d  c #262418",
"f  c #382619",
"g  c #2B2523",
"h  c #352825",
"j  c #383328",
"k  c #37342E",
"l  c #2C1C21",
"z  c #451401",
"x  c #441A04",
"c  c #481B08",
"v  c #551D0A",
"b  c #431D11",
"n  c #471104",
"m  c #47250A",
"M  c #56250D",
"N  c #482917",
"B  c #572915",
"V  c #4B341A",
"C  c #58341B",
"Z  c #652C17",
"A  c #64331C",
"S  c #68371B",
"D  c #713116",
"F  c #462C25",
"G  c #493728",
"H  c #573826",
"J  c #493935",
"K  c #573C34",
"L  c #452F34",
"P  c #673A26",
"I  c #713B24",
"U  c #743C29",
"Y  c #693528",
"T  c #70431E",
"R  c #5A432A",
"E  c #554333",
"W  c #5C4A34",
"Q  c #5C4C3B",
"!  c #5A4538",
"~  c #57583C",
"^  c #494335",
"/  c #684529",
"(  c #7C442B",
")  c #764529",
"_  c #6B4C3A",
"`  c #664936",
"'  c #784935",
"]  c #63523C",
"[  c #6C543D",
"{  c #6A5438",
"}  c #73543C",
"|  c #7C5C3C",
" . c #795638",
".. c #523E40",
"X. c #5B4A46",
"o. c #5A5C43",
"O. c #57524F",
"+. c #644D4A",
"@. c #665442",
"#. c #6C5441",
"$. c #695948",
"%. c #745B44",
"&. c #7B5D44",
"*. c #775846",
"=. c #695754",
"-. c #745B56",
";. c #674E51",
":. c #5C6044",
">. c #656249",
",. c #7D634C",
"<. c #776248",
"1. c #7A6656",
"2. c #7A785E",
"3. c #6A6859",
"4. c #786866",
"5. c #7C7B63",
"6. c #797964",
"7. c #833B27",
"8. c #843A17",
"9. c #84452B",
"0. c #944B2C",
"q. c #854A34",
"w. c #875539",
"e. c #98563A",
"r. c #954D35",
"t. c #A45A3D",
"y. c #91613E",
"u. c #8F411D",
"i. c #885A46",
"p. c #965C42",
"a. c #9B5D50",
"s. c #A45D46",
"d. c #836445",
"f. c #84654B",
"g. c #8B6B4B",
"h. c #8A6646",
"j. c #9B6B4D",
"k. c #976548",
"l. c #8C6D53",
"z. c #866955",
"x. c #976953",
"c. c #8D7155",
"v. c #8A7258",
"b. c #93735B",
"n. c #967458",
"m. c #92714F",
"M. c #AB6444",
"N. c #A4654B",
"B. c #AB6C4B",
"V. c #A56748",
"C. c #B3694B",
"Z. c #AD714E",
"A. c #A36D52",
"S. c #A96B54",
"D. c #B46D53",
"F. c #AB7355",
"G. c #A77759",
"H. c #B37553",
"J. c #B37A55",
"K. c #B4745B",
"L. c #BC7C5C",
"P. c #B77758",
"I. c #B4714F",
"U. c #837364",
"Y. c #8A7767",
"T. c #987A69",
"R. c #8B7370",
"E. c #A87A64",
"W. c #B87B64",
"Q. c #C37959",
"!. c #C37D65",
"~. c #7E826F",
"^. c #BC825C",
"/. c #B9815B",
"(. c #A3825F",
"). c #8B866D",
"_. c #98856B",
"`. c #8D8D76",
"'. c #8C8D7B",
"]. c #858776",
"[. c #928E7C",
"{. c #978A76",
"}. c #8C917D",
"|. c #8B927A",
" X c #93927C",
".X c #989179",
"XX c #A88468",
"oX c #BD8365",
"OX c #B88669",
"+X c #A88B76",
"@X c #B78C75",
"#X c #A69176",
"$X c #BA947B",
"%X c #BE906F",
"&X c #C2845E",
"*X c #C38363",
"=X c #C3856A",
"-X c #C48B6C",
";X c #CB8C6B",
":X c #C88866",
">X c #D18D6B",
",X c #CB926B",
"<X c #D1936C",
"1X c #CB8C72",
"2X c #C58C75",
"3X c #D38E78",
"4X c #CC9474",
"5X c #CC937B",
"6X c #C79679",
"7X c #D29474",
"8X c #DC9D7B",
"9X c #D59878",
"0X c #E29B7B",
"qX c #DAA17C",
"wX c #E3A37E",
"eX c #8D8E81",
"rX c #878F81",
"tX c #958B82",
"yX c #8D9283",
"uX c #8B9586",
"iX c #929383",
"pX c #999483",
"aX c #999888",
"sX c #B79887",
"dX c #AA948B",
"fX c #B4A697",
"gX c #BFABA6",
"hX c #CC9C83",
"jX c #CA9983",
"kX c #DC9D82",
"lX c #D39984",
"zX c #E29E84",
"xX c #DCA384",
"cX c #D7A48A",
"vX c #DAAA94",
"bX c #CCA691",
"nX c #E3A484",
"mX c #E6A888",
"MX c #E5AB92",
"NX c #E7B698",
"BX c #EEB293",
"VX c #D0B4AA",
"CX c #EABAA3",
"ZX c #E5C5B5",
"AX c #EBD1C8",
"SX c #FDE6DC",
"DX c #FFEBEC",
/* pixels */
" .g.g.c.).g.| <.} { z.z.H x R *.f.l.b.b.v.z.1.<.W f 9 4 7 7 6 6 i e 7 i i w q 7 5 9 9 0 t d d = f U.U.).pXaX'.aXeXuXiXiXiX'.5.>.",
"{ y.g.g.g.g.| | | { f.&.N q H _ i.f.f.z.b.v.{ R e 9 5 9 e i b F F f N F N N m N m 5 4 q t f d = j v.U.`.pXaXeXtXiXiXiXiXaX|.U.>.",
"{ y.g.| y.g.<.%. ._ | } m 5 N _ v.f.f.z.v.,.R a @ @ q H +.U Y H ` ..K _ ` _ | i.{ V a q q h G t h U.Y.{.tXaXeXyXaXiXiXiXpX[.6.>.",
"/ <.d.| <.g.g.| *.{ *.*.N 9 H &.v.x.b.b.,.` V V 9 m _ b.T.v.i._ _ ` U K P ' h.n.@XXXg.V 9 V Q F F U.U.'.tXiXeXeXuXuXyXyXiX[.6.3.",
"/ | g.| <.(.g.| ,.&.z.f.H e H v.z.x.b.b.} V N H B f.sXbX@Xg. .w.` / H C A ) m.OXcXvXhXg.B N H H H 2.U.{.tXtXeXiXiXyX'.}.iX`.5.$.",
" .g.m.<.y.g.m.,.&.*.,.*.G 9 N z.b.l.z.f./ x m C b.@XbXvX@Xk.q.) / / T T / w.G.6XxXvXNXbXx.C b V K 1.U.{.[.aXaXiXaXyX'.'. X[.6.$.",
"| g.(.| ).(.<.g.%.%.%.[ F 4 a $.z.i.i.} B w N ' jXhXbXqX%XG.w.T S P / )  .k./.4X9XMXMXNXvXa.M B H 1.2.pXtXpXiXiXaXuX}.}.pX}.5.>.",
"| y.| | | | | ,.*.#.#.[ H 5 i #._ _ } ` m w ' @XhX6X6X4X-XF.w.D ) ) w.k.B.J.,XqXwXCXmXkXBX6X' M G %.1.pX.XpXeX].aXuX}.|.aXiXY.>.",
"| d.g.y.| | &.<.` %.*.1.G 4 N K ` ' *.K c B b.hX6X5X6X4X,X/.t.T 9.y.Z.Z.J.-X8XqXmXmXmX8XkXmXW.Z V E Y.{.[.'.yX3.].}.|.}.pX X~.>.",
" .| g.h.d.d.d.,.} #.#.$.F @ f K +.i.i.P N ) W.cX5X4X4X,X,X&XZ.e.e.y.Z.J.L.>X8XwXwXnXmXzXzXmX1Xi.V G 4.{..X`.iX6.6.~.].|. X X2.$.",
"T y.g.g.l.l.c.,.[ #._ @.N $ t E *.z.f.H Y x.jXcX5X9X1X;X:X&XH.M.t.M.J./.*X;X9X0X8XzXnXzXkXmXkX%X/ G 1..XpX[.iX~.6.~.|.}. X.X2.~ ",
"/ | h.g.m.b.v.f.[ #.@.@.J 0 i E *.l.#.B / OXbXlX5X4X,X;X*X&XH.Z.M.I.J.&X:X>X>X9X8X8XzXnXkXkXnXcX| ^ @.{.pX[.iX'.rXuX}. XpX`.2.~ ",
"T | y.y.g.v.v.,.,.%.$.+.G t t ! z.,.H N i.sXlXjX5X3X1X=X!.P.C.B.V.B.I.*X>X:X1X9XzX8XzXnXkXkXnXcXT.E W `.iX XiX'.].|.|.|. X X2.>.",
"R | g.<.d.c.c.f.z.1.%.! G 0 0 +.Y.z.R C z.jXlXlXlX9X1X=XW.D.M.t.e.t.M.Q.!.!.!.1XkX5XkXMXnXkXcXcX#XQ ! _..XpX X}.|.|.`.`.`.`.v.>.",
"T | g.y.f.c.v.,.,.1.1.Q J t 4 X.U.v.` C a.sXhXlXkX3X=X!.K.M.t.s.e.0.t.I.K.K.L.=X1X1XkXcXkXcXmXhX#X@.Q .X.XpX|. XiXiX X|..X`.~.>.",
"V { (.g.g.n.n.z.[ %.,.@.E f 4 Q z.b._ V i.2XjXlXlX;XW.D.D.s.e.e.t.0.t.I.Q.K.!.1XoX2XkXvXlXcXxXjX#X#.] .X X X}.uX|.|.|.`.`.`.2.:.",
"V | g.d.d.m.m.).&.&.&.&.#.N t K g.l./ C A.G.OXqX4X*XL.C.M.s.r.r.0.0.t.M.C.I.!.1X2X3XlXkXcXqXqX%X@X&.` ).aX[.aX}.rXrXeX[.pX X2.>.",
"R d.2.d.g.m.m.m.d.| &.<.$.N f ` &.d.{ T m.Z.G.,X,X*XL.D.C.C.C.C.t.M.C.I.Q.Q.>X3XlXlXlXlXcXqX6X%X6X} ` dX].'.uX}.uXuXeXeX X{.2.:.",
"V ~ | | | g.| d. . .} *._ f i W i.d.h.S h.J.A./.-X=XoXL.W.!.!.!.Q.D.B.P.&X&X=X7X3XlXvXMXvXxXqXqX6X .| fX).}.|.uXrXyXeXeX.X`.2.>.",
"V ~ ~ R { | :.| { { ` [ ` a e R f.h.g.A y.%X(.OX6XOXL.K.W.W.S.s.D.C.M.C.I.P.W.2X3XjXkXcXvXqX4X-XqXi.m.sX{.aX|.uXeXyXtXeX X.X2.:.",
"f E W W :.<.<.| { [ { [ ~ a a R ,.y.n.T h.%X^.%XxX-XG.A.x.x.i.' q.i.r.q.r.N.G.S.W.S.a.E.5XcXxXqX6XG.XXb..X.X].}.yXtXeXeXpX X2.:.",
"V E Q Q { | >.<.<.%.{ #.{ a e R  .g.OXy.A.%X%X%XOXj.' / P U ` P A U U I Y U ( I n v Y i.a.G.=X7XqX%XXXy..X).|.aXyXiXeX[. X X6.:.",
"f ^ E E ~ [ { <.<.[ { { { V a V | y.G.y.G.OXOXj.) B x 7 5 q e x b A U Y Y B v n n B q.a.A.N.P.4XxX-X(.n.#X)..X XiXiXiX[.iX|.2.o.",
"f G E E W W { >.<.{ ] { %.V a R g.y. .) J.OXG.) ) P C m 7 4 5 q n N Y ) U Y v n n n v ' x.P.OX4X7XJ.j.#X#X).aX|.iXyXtX[.iX'.6.:.",
"j K E W Q ] @.>.z.1.[ [ %.V a R y.G.y.) k.G.y.) ' A w 4 4 9 9 4 6 B _ E.W.B 3 v n 8 B U U a.-X5X<Xy.y.XX#X.X X}.eXeXtXiX[. X6.o.",
"j W Q ! W X.@.<.1.1.{ %.| R m T w.(.k.T w.B.k.) S S N q @ 9 0 9 @ Y a.@X$X( n n Y Y a.K.W.W.5X3X7XA.m.XX_.`. X'.eXeXiX X[. X6.o.",
"N Q $.Q Q Q $.<.<.<.{ <.c.{ m C | G.m.T ) j.A.p.k.k.' N e e 9 @ b x.W.6X6XG.I n v Z i.W.2XjXzXkXqX/.XXXX_..X X}.eXeXiXtX[. X6.~ ",
"f Q $.~ W ~ @.] %.%.` <.m./ a M  .y.j.w.q.A.OXW.x.k.' M e e q 5 x.oXOX@X6X2XS.( Y Y a.W.=X3XzXlX4X$X%X#X{..XiXyXeXeXiXeX[.|.6.~ ",
"a W >.W W { ] @.$.#.` &.g./ x m  .y.A.A.k.Z.=X-XS.a.q.B w 5 N i.OXOXJ.*X9X,X4X=Xa.p.a.!.1XnXnX9X%X6X$X.X{.'.}.yXeXeXiXiX[.`.2.~ ",
"a W { R R W ] #.[ [ [ &.f.P a M | y.(.(.J.j.B.W.=XN.9.Y B B *.@XoXoX^.<X8X;X7X1X!.K.a.S.=XkXqX7X%X$X$X#X[. XyXuXyXeXeXeX[. XU.~ ",
"V W { ~ ~ ] ] { ] [ _ d.n./ m B | m.(./.G.k.e.H.S.q.Z Z U w.z.E.=X:X&X<X0X<X;XV.lXlX!.W.1X3X1X-X%XsX#X{.pXiXrXuXuXeXiXiX.X`.~.~ ",
"V W | <.<.{ ~ Q ] ] [ z.XX} m M  .(.G.j.(.V.e.Z.s.e.q.9.' ' ( ' -X=XB.I.>XnX>X9.7.K.lXkXkX9X;X,XOX$X_._.iXeX].rXrXeX}. X X.X2.~ ",
"G E H j s f t 0 f t t G W E N N  .g.(.G.h.h.N.s.t.s.s.r.9.Z M E.=XoX9.B.9XMXBXs.D s.!.1XkXkX,XOX%X+Xc..X.X`.|.|.|.rXiXeX[.[.6.~ ",
"h f f 0 0 t s g r s d 0 0 0 t j m R c._.g.w.k.p.p.r.9.U I Z Z m.w.( Z e.N.r.s.s.7.9.s.!.1X5X4XOXXXG.n.#X`.`.|.|.|.rXiXiX'.[.6.o.",
"f 0 0 * 0 < < y r h s = = 0 $ + $ $ N E C [ a.*.e.e.r.e.7.v M S n n Z q.r.D p.lXs.7.e.=XW.-X4XOX%Xn._._.). XuX].uX'.yX'.'.[.5.o.",
"u & # , y & ; > 1 < & . * d u 0 = $ $ + @ ` z.' q.i.9.9.Z Z y.y.I c v Z a.!.D.D.3XN.N.=XL.L.-XOXOXg._.{. X|.|.yXyX'.eX'.'. X~.:.",
"% O O ; ; ; ; < > y y y u $ $ 0 u u l u + f *.*.' i.q.9.T  .G.h.S A S M 7.!.W.K.7X=XP.P.^.^.G./.E.*.z..XpXiXuXuXeX'.|. X'. X~.~ ",
"o O . O O O ; ; & , * & p + . + % O % p : 6 H z.*.q.q.w.w.e.w.M I B M v U W.D.a.F.^.I.C././.J.OX$X*.9 Q Y.aXuXaXeXeX X|.`. X~.~ ",
"; ; O O O ; ; & % , $ 4 F K K K L l % + + @ i #.*.U Y U I ) I H C C P Z Z U 7.a.0.e.V.Z.H.J./.G.@Xb.+ 0 k 3.~.uXeXeX X X`.`.~.~ ",
"O O O % y g l , p ;.T.dXsXsXXXY.T.tX;.i @ + 3 B i.U q.9.S v 7 v z z w z Z U 9.7.9.D e.L.Z.J.oXx.-.dX0 u   1 O.uXyXeX.X.X.X).2.~ ",
", , g g h L . G ZXAXz.VXCXCXvXCXVXCXVXbXT.R q 3 v q.e.7.Y n b U H C M M / p.K.oX=Xe.q.Z.F.oXG.k.#.dXu t 2 2 2 k rXtXaX[.[.[.2.~ ",
"g u s h 0 . +.AXVXK @XZXcXcXNXmXCXvXhXcXNXNX6XG.Z D 7.Z v M 7.i.' Y B B S q.j.H.S.F.e.j.G.x.L.n.*.dX0 t 2   2 < y ;.tXaX[.`.2.>.",
"t s r $ @ s VXSX&.w vXcXlXxXmXwXzXBXBXqXqXqXNXBX0X3XzXK.7.Z U Y B c w z M Z 9.k.Z.A.A.A.k.k.5X` R.dX$ y =   > X , g k =.|.aX).o.",
"= s # . $ Y.SXdX3 ` 6X-X7XxX8XwXzXzX0X,X,X,XqX,X!.3XBXMX!.7.7.U Y B c B ) q.k.F.G.A.A.j.a.E.b.7 VXR.$ d 1 X > O , < t j X.3.3.:.",
"d - . . r fXZXU.5 / n.4XQ.0XwXwX0X>X:X:XqX,X,X/.&X&X9XzXlXe.I q.i.' A U i.x.W.2XJ.OXx.i.T.f.8 F AX;.@ , - -   o . , s s d j j ^ ",
"2   X 2 s fXVXY.5 m E.4X:X0X0X!.Q.!.0X>X,XV./.,X&XP.C.7XMXP.) ' *.Y v B I w.A.oXG.G.x.a.*.N @ dXDXF 0 p 2 >   o & % # r s j d d ",
"    2   k dXgX[.4 x m.OX<XwX>XQ.Q.Q.3X9XnXJ.,XqXqX&XB.qXnX2XT w Z B n z v I q.p.x.' w.' c 3 K AXAX0 r r & o & % % : = r d 1 d j ",
"2 X O O k 6.fXfXR w C 6X=X:X0X0XC.C.8XwXBXZ./.qXmX*XZ.mX4XqX0.c c v n n n Z S Y  .i.H 7 e 6 z.DXfX+ 0 y O O <   % O - - - d - d ",
"  X   X s 1.dXVXv.7 M G.K.1X1XzX9XM.>XwXwX&X/.,XqX,XJ.<XwX8XJ.:X8 x c c c c N P K 8 6 i 6 L gXDX4.O y y O , . % % o # & - < 1 y ",
"2 X X X t X.Y.sXbX/ 8 w.W.E.W.9XwXP.<X0X<X&X/.,X<X,XJ.<XqX8X&XwXA.B z m w N Y b 8 b i i 6 ;.DXDXJ O y y . > X . o . X & & , < y ",
"# # X # = F 1.T.sXdXc n x.W.hXF.7XP.&X;X&X&X/.&X&X&XJ.&X;X;X&X4XCXj.v z m N b e 6 f 6 i F ;.gXVX* > < ; O & , . . O O o & - , , ",
"o . . # * i X.T.+XbX*.3 w c E.6X1XP.B.L./.&XJ.J.J./.I.I.*X*XB.S.5XMXOXB n n w 7 i b 6 6 -.L L 4.. < > ; & o > . o . % % & & ; > ",
"# . . # + 0 J 1.T.dXT.C N P T.2XlX=Xk.W.:X:XI.B.J./.Z.M.^.:XF.e.A.W.vX6XB 6 8 w 6 F p i 4.k L O.. y . ; < . & o o X o & & - > , ",
"> % % % . * h ! -.U.dXT.T.dXT.E.lXW.e.L.<X<XI.M.&X,XI.t.=X,XK.r.e.U N.jXE.Y z b 8 i @ +.=.p 4.l > < . , y . & % o & % & & ; - ; ",
"; & % % % # 0 h +.=..X{.X.a f +X@X=XN.N.;XQ.Q.0.&X<XQ.t.&X1XK.9.D q.( I x.E.Y 7 b 6 + R...; O.2 , > % > ; o & X o % & & & > ; , ",
"& % % % % + & * g 1.4.E $ + + ` 2X7XD.e.Q.C.t.8.M.I.I.u.L.;XS.I p.) I I A Y ' N 6 3 u tXg O.k < > & & & % , , O . X & & & & , & ",
"; % ; % & % & # , = $ # X + $ 9 E.S.K.9.M.Q.Q.D t.I.C.0.=XK.K.Z M A U ) ' ' Y 7 6 i +.-.k ..; < > ; - & & % . . % & & & > > > , ",
"; ; ; ; % % # X % . X .     . $ ' a.oXe.M.C.Q.u.0.Q.:Xt.H.N.p.v B 7 8 B N b b 7 i b -.4.L k 2 2 > - & & & o O . o & & & - ; > > ",
"; % & % & O . .   . . X       # x ) A.9.r.V.Q.0.t.Q.C.e.W.vXN.c P w 3 3 8 6 6 b ..L R.;.g O ; < 1 > & & % & X o & & & & & , - > ",
"% ; % ; & o O O . . X o X X X $ 3 c H z I B.:Xe.0.t.p.' k.hX*.5 N ` f @ 7 e 6 K X.L -.h O O g < , > & o & o & & & & & - & > & ; ",
"% % & & & & o o O O X X X X 2 X + 4 5 3 A E.2Xk.9.1XcXi.c H 5 4 9 E X.t 6 i K ;.L ..+.l O > g ; 1 > & o o & & & ; & - & & - ; & ",
"% o o & o - - o X X O     X X X # $ $ 3 b ' i.U S @XsX*.3 $ . = s d =.O.: h -.+.;.;...p   < < o > - & o o & - & - - ; ; > & & & ",
"o o o o o o o & o o X O X X O o 2 o = $ @ i b 7 w H C i $ - 2 2 h 1 ..=...=.R.;.R.U.L % . , < > - & o O % & & & > & & & ; & & - ",
"2 # o X X X o o X X X   O O X   o o & * $ 5 5 @ 3 i 6 4 - O > 2 1 d g L 4.dXtXU.;.;.u . : , > < & & % % & & & % ; , , & - & & & "
};
