/* XPM */
static char *ihtiyarlarR1730644979[] = {
/* columns rows colors chars-per-pixel */
"64 64 221 2 ",
"   c #312C37",
".  c #493B3D",
"X  c #51443F",
"o  c #1C2C53",
"O  c #182C58",
"+  c #242C46",
"@  c #2F3346",
"#  c #2B324A",
"$  c #323445",
"%  c #35364C",
"&  c #39364B",
"*  c #393848",
"=  c #223556",
"-  c #2A3552",
";  c #2C3A5B",
":  c #323A53",
">  c #353D5A",
",  c #0E2E6A",
"<  c #132F63",
"1  c #152E66",
"2  c #0E316B",
"3  c #193262",
"4  c #17326D",
"5  c #0E2E70",
"6  c #132E72",
"7  c #0D337B",
"8  c #0D3478",
"9  c #163778",
"0  c #10357C",
"q  c #243969",
"w  c #2A3D74",
"e  c #453D45",
"r  c #2C445E",
"t  c #3B4357",
"y  c #2E4472",
"u  c #354A74",
"i  c #4E4445",
"p  c #564749",
"a  c #564A4B",
"s  c #484957",
"d  c #554B53",
"f  c #564B54",
"g  c #5E5253",
"h  c #57535B",
"j  c #625454",
"k  c #645658",
"l  c #665A5B",
"z  c #6B5C5D",
"x  c #6E605D",
"c  c #444C62",
"v  c #484C63",
"b  c #4C5467",
"n  c #575A67",
"m  c #55556F",
"M  c #695D64",
"N  c #586078",
"B  c #6D6364",
"V  c #63616D",
"C  c #6C6A6D",
"Z  c #746765",
"A  c #73676C",
"S  c #766A6B",
"D  c #7A6D6D",
"F  c #7D706F",
"G  c #676775",
"H  c #6C6D73",
"J  c #756D74",
"K  c #6E7074",
"L  c #757376",
"P  c #7E7272",
"I  c #737179",
"U  c #7A7B7D",
"Y  c #827575",
"T  c #867B7A",
"R  c #877C7B",
"E  c #898077",
"W  c #0D3582",
"Q  c #0B3985",
"!  c #0D368B",
"~  c #0F378E",
"^  c #0B398A",
"/  c #113583",
"(  c #123F86",
")  c #123F89",
"_  c #0C3795",
"`  c #0B3D94",
"'  c #0A3E9B",
"]  c #0B3EA5",
"[  c #124186",
"{  c #1D4383",
"}  c #12418B",
"|  c #144499",
" . c #25498B",
".. c #365488",
"X. c #2B5697",
"o. c #365996",
"O. c #0743A3",
"+. c #0943A4",
"@. c #0845AC",
"#. c #1148A9",
"$. c #1B53AB",
"%. c #0948B2",
"&. c #064BBD",
"*. c #0A4BBC",
"=. c #0F52BC",
"-. c #1753B7",
";. c #2655A6",
":. c #2A5AB6",
">. c #305FBF",
",. c #3668B9",
"<. c #435687",
"1. c #445A90",
"2. c #4D6B8D",
"3. c #5A6785",
"4. c #4A669A",
"5. c #566A97",
"6. c #5B7291",
"7. c #686C85",
"8. c #6A778D",
"9. c #7B7983",
"0. c #687993",
"q. c #6E7699",
"w. c #4566A7",
"e. c #4A6AAA",
"r. c #687CA8",
"t. c #054EC3",
"y. c #094FC5",
"u. c #054FCC",
"i. c #0A4EC9",
"p. c #0750C6",
"a. c #0951C4",
"s. c #0551CB",
"d. c #0952CC",
"f. c #1558C6",
"g. c #0654D3",
"h. c #0954D3",
"j. c #0858D7",
"k. c #0556DC",
"l. c #0359DE",
"z. c #0C5CDD",
"x. c #155ED5",
"c. c #125DDB",
"v. c #215CC3",
"b. c #1E62CE",
"n. c #0E60D9",
"m. c #1764D7",
"M. c #2564C8",
"N. c #3167C3",
"B. c #286AD4",
"V. c #2A71D6",
"C. c #3776D6",
"Z. c #0457E2",
"A. c #0259E2",
"S. c #0C5DE1",
"D. c #0457E8",
"F. c #025AE8",
"G. c #447ED3",
"H. c #847D81",
"J. c #847F95",
"K. c #7B848C",
"L. c #758293",
"P. c #6F89B2",
"I. c #6C88B7",
"U. c #718AB4",
"Y. c #738EB5",
"T. c #718BB9",
"R. c #3E82DC",
"E. c #4C87DD",
"W. c #578DD9",
"Q. c #638BCE",
"!. c #6E94CD",
"~. c #6592D4",
"^. c #6A91D4",
"/. c #6799DB",
"(. c #7296D2",
"). c #729BDB",
"_. c #7BA4DA",
"`. c #6F9FE2",
"'. c #7CA3E1",
"]. c #848285",
"[. c #8C8383",
"{. c #89878C",
"}. c #94888B",
"|. c #858895",
" X c #8E8B92",
".X c #968E93",
"XX c #8D9096",
"oX c #939295",
"OX c #9B9295",
"+X c #94959A",
"@X c #9A969C",
"#X c #969A99",
"$X c #9D9C9E",
"%X c #A29797",
"&X c #A29E9E",
"*X c #9EA09F",
"=X c #A0A09F",
"-X c #9597A4",
";X c #9E9EA2",
":X c #8B99B9",
">X c #A29EA2",
",X c #A69FA6",
"<X c #9EA0A2",
"1X c #A2A1A3",
"2X c #AAA5A6",
"3X c #A5A3AA",
"4X c #AAA6AC",
"5X c #A6A9AA",
"6X c #AAA8AD",
"7X c #B3A8AC",
"8X c #AAABB3",
"9X c #A8ABB6",
"0X c #ACB0B5",
"qX c #B7B1B7",
"wX c #88A6C8",
"eX c #89AADD",
"rX c #97B5DB",
"tX c #ADBAC8",
"yX c #B2B6C6",
"uX c #A3B9D7",
"iX c #ABBAD2",
/* pixels */
"9 } [ [ ( ( [ [ ( ( [ [ ( [ ) [ ( ( ( ) ( ) ( ( ) ) ) ) ) ) ) ) ) } [ [ [ [ [ [ ) ) ) ) ^ } } } } [ [ [ [ } } } [ [ [ [ [ [ } 0 ",
"i.D.Z.l.l.l.l.l.l.l.l.Z.l.Z.Z.z.l.l.l.k.Z.Z.l.l.l.l.l.Z.k.A.D.D.Z.Z.A.A.D.Z.l.z.l.A.k.k.Z.F.F.S.A.l.l.S.A.A.F.S.A.F.A.A.l.l.l.d.",
"a.A.A.l.l.A.A.l.Z.A.A.l.A.A.A.l.l.l.l.Z.D.D.A.D.D.F.F.A.D.A.l.l.l.A.A.A.A.A.A.A.A.Z.D.D.F.A.A.A.A.l.l.l.n.F.F.A.n.n.A.l.l.A.A.d.",
"a.D.A.l.l.A.l.A.Z.A.A.A.A.D.A.A.A.Z.A.Z.A.A.A.A.A.A.A.D.A.A.l.*.V.z.D.A.D.A.A.A.A.A.l.l.A.l.A.A.A.A.A.F.A.F.n.A.F.F.F.A.A.l.F.p.",
"i.Z.A.l.l.l.A.A.l.A.A.A.A.A.A.A.A.l.A.A.A.A.l.A.A.A.A.A.A.Z.&.w wXC.Z.k.A.A.A.A.l.A.A.A.l.A.A.A.A.A.A.A.A.A.A.A.A.A.A.l.l.A.A.s.",
"a.Z.A.l.l.A.l.A.A.A.A.A.A.A.A.A.A.A.A.A.A.A.A.A.A.A.A.A.Z.p.6 V 9XeXB.D.A.A.A.l.A.Z.A.Z.A.A.Z.l.A.A.l.A.A.A.A.A.A.A.A.A.l.l.F.s.",
"a.A.A.l.l.A.A.A.Z.A.l.l.l.l.l.A.l.A.A.A.A.A.A.A.l.A.l.A.z.! v +X1XyX).S.D.A.l.A.A.A.Z.A.A.A.A.A.A.l.A.D.A.A.F.F.A.A.A.l.A.A.S.s.",
"a.Z.Z.l.l.A.A.A.A.A.A.l.A.A.A.A.A.A.A.l.A.A.A.l.A.A.A.l.+.;  X>X;X3XiXE.k.Z.l.A.A.l.A.A.Z.l.A.A.A.A.A.A.F.A.F.A.A.l.A.A.A.n.A.d.",
"y.A.Z.l.l.A.A.A.l.A.A.l.l.Z.A.A.A.A.A.A.A.A.A.A.A.D.A.&.3 U <X<X;X>X6XuXC.k.A.A.A.A.A.l.l.A.A.l.A.A.A.A.A.F.F.A.A.A.A.A.l.l.A.d.",
"y.A.Z.l.A.k.A.A.A.A.A.A.A.A.A.l.A.A.l.A.A.A.A.A.A.Z.u.6 N <X*X#X|.,X$XyXrXm.A.A.A.A.A.A.A.A.A.A.A.A.A.A.A.A.A.A.A.A.A.A.l.l.l.s.",
"y.D.l.l.Z.Z.A.A.A.A.A.Z.A.A.A.Z.Z.A.A.D.A.A.A.A.l.k.^ s $X;X-XN >  X;X;XtX`.c.l.D.A.A.A.A.A.l.l.n.A.A.A.A.A.A.A.A.A.A.l.A.l.l.s.",
"y.A.Z.l.l.Z.A.A.A.A.A.l.A.A.A.l.k.S.S.S.S.z.z.z.z.%.;  X1X;XL.;.0 v +X$X1XuXE.c.z.z.z.z.z.z.c.c.n.F.A.A.A.A.A.A.l.A.A.A.n.A.l.s.",
"a.Z.A.l.A.A.A.A.A.A.A.A.l.A.A.l.] 5.T.T.T.T.T.I.U.0.9.,X&X|.X.j.y.O G &X$X9X:XP.P.P.P.P.P.r.!.W.l.A.A.A.F.A.A.A.A.A.A.A.F.l.A.s.",
"y.A.A.l.A.A.A.A.A.A.A.A.Z.A.A.A.) 7.3X3X3X,X>X>X>X>X;X>X#X4.a.A.F.%.O 9.>X=X,X,X,X>X>X>X,X,X8X^.l.A.A.A.n.A.A.F.A.A.A.A.A.A.A.s.",
"a.A.A.l.l.A.A.A.l.Z.A.A.A.A.A.l.! H >X;X;X;X$X>X*X*X;X#X6.-.l.A.F.l.' :  X1X&X>X>X>X>X>X>X>X4X^.l.l.A.A.A.A.A.A.A.A.A.l.l.A.A.s.",
"p.F.A.A.A.l.A.A.A.A.A.l.A.A.A.l.~ I 3X;XOX#XoX#X+XoX#X0.$.l.A.A.l.A.h.7 v oX+X-X@X@X@XOX%X>X4X^.l.A.A.A.A.A.A.A.F.A.A.A.A.A.A.s.",
"a.A.A.A.A.A.A.A.A.l.A.A.l.A.l.A.^ I 1X;Xn * * * $ * *  .s.A.Z.A.A.Z.Z.u., % * : % % * * H.&X6X~.l.A.A.A.A.A.A.A.A.A.A.A.A.A.A.g.",
"p.A.D.A.A.A.A.A.A.A.A.A.A.A.A.A.^ K ;X5XI.' ' ' ' | ' p.l.A.Z.Z.l.Z.Z.Z.y.O.' ] ' ' ` O I &X8X~.l.A.A.A.A.A.A.A.A.A.A.A.A.A.A.p.",
"a.A.A.A.l.A.A.A.A.A.A.A.A.A.A.A.^ H >X5X(.z.l.l.A.l.c.x.M.b.b.c.x.B.C.C.C.B.n.n.A.D.Z.9 L &X4X~.l.F.A.A.A.F.A.A.A.A.S.A.A.A.A.s.",
"p.A.A.A.A.A.A.A.l.A.A.l.A.A.A.A.! H =X5X(.l.l.l.z.:.1.b V V G 6.6.8.|.9.I 3.5.N.z.A.Z.0 L =X5X~.l.A.l.A.n.F.A.A.A.F.A.A.n.F.A.s.",
"i.A.Z.l.A.A.A.A.A.A.A.A.A.A.A.A.! H 1X5X^.z.l.g.| r - o + & M H.Y D f ; 3 < = y ;.z.A./ L =X6X~.l.A.A.A.A.F.A.A.S.A.A.A.F.A.A.s.",
"i.A.k.A.l.A.A.A.A.A.A.A.A.A.A.l.! H 1X5X!.l.l.%.^ +.&.p.*.w f A }..X8.-.g.j.p.+.+.l.D.7 L &X6X~.l.A.A.S.A.l.A.A.F.A.A.A.A.A.A.s.",
"i.A.l.k.A.A.A.l.A.A.l.A.l.A.A.A.! H ;X5X(.l.l.k.k.D.D.k.] m M p S &X3Xe.S.A.l.l.l.l.Z.0 L &X3X~.l.A.A.A.A.l.l.l.A.A.A.A.A.A.A.s.",
"y.A.Z.l.A.A.A.A.A.A.A.A.A.A.l.l.0 H 1X5X(.l.A.l.A.Z.D.y.w J A h : [.qX:XN.A.A.l.l.A.D./ I &X8X(.l.A.A.A.A.l.l.l.n.A.A.A.A.A.A.s.",
"y.F.A.A.A.A.l.A.A.A.A.l.A.A.Z.&.O ].;X2X(.z.A.A.A.A.D.` M D Y w.) s }.,Xr.c.Z.D.l.A.D./ I 1X5XuXC.l.l.A.A.A.A.A.A.A.A.A.F.A.A.d.",
"y.A.A.A.A.A.A.A.A.A.A.A.A.D.d.6 V ;X<X<XQ.Z.A.A.l.A.u.q S Y A 4.w.v B T |.M.A.A.Z.l.D./ H 1X;X8XeXB.A.A.A.A.A.F.A.A.A.A.A.A.D.p.",
"y.A.A.A.Z.A.A.A.A.l.A.A.Z.k._ t -X<X$X6.f.k.Z.A.A.A.@.* S S k k oX>X}.Y G w.Z.D.A.A.Z.' : {.=X1XyX).n.A.A.F.F.n.F.F.A.A.A.A.A.u.",
"y.A.A.A.A.A.l.A.A.A.A.Z.Z.+.; {.1X<Xq.$.A.Z.Z.A.A.l.` s S Y k j %XqX7X,XH.5.S.A.Z.A.Z.h.8 v &X>X3XiXE.n.A.A.A.A.A.A.F.A.A.Z.l.u.",
"y.A.A.A.A.l.A.A.Z.A.A.l.*.O U &X&X|.;.h.z.l.A.l.A.k.{ h F Y x j [.2X7XqX7XXX,.k.A.A.l.i.-.1 G ;X$X6XrXC.n.A.A.n.S.A.F.Z.A.A.A.u.",
"p.F.A.A.A.A.A.l.A.l.A.u.6 N >X&XXX4.d.g.f.z.A.l.k.| i l Z P M j T %X7X7X7X&X8.v.D.A.l.` v.%.o 9.*X$XtXeXm.n.F.A.A.A.A.F.k.A.A.u.",
"p.A.A.A.A.l.A.A.A.A.k.! c +X>XOX5.=.Z.d.;.l.l.A.@.: X l S P l i j F %X2X2X2X%X5.c.Z.g. .>.F.' :  X&X1XtX`.n.A.A.A.A.A.A.Z.Z.k.u.",
"a.F.A.A.A.A.A.A.l.Z.] q {.$X>Xq.$.l.Z.d...b.l.k.9 g g k S P A t O & D .X,X&X,XJ.>.Z.t.t f.F.z./ v #X=X2XiXW.S.A.A.A.A.Z.Z.A.A.s.",
"t.A.Z.A.l.A.A.l.l.k.8 n >X&X>X:XB.l.Z.h.y e.A.t.> S a k Z Y Y e.` % g M H.OXOXOX5.S.] v x.Z.F.%.+ {.=X=X<XE.n.A.n.A.A.l.l.A.F.s.",
"t.A.D.A.A.A.Z.A.A.A.' - ].>X$XtX'.m.Z.Z.Q 3.B.O.n F i d Z D S G ..n M p p B J.R 6.-.u N x.k.s.7 n $X=X#X4.=.n.n.A.F.A.l.l.A.A.s.",
"i.Z.Z.l.l.A.A.A.A.A.z.! > OX*X<XiX~.h.Z.` n r.y S T h e j z x j A P S l e e z Y M o.V 1.k.Z.` t oX=X&X8.=.n.F.S.A.A.A.l.l.A.F.s.",
"i.Z.Z.l.l.l.l.Z.A.D.D.h.2 h *X<X5XrXG.l.&.; C b S D 3.9 . p . j D T P S 3.9 e e g H.H ;.A.%.= ].*X&XK.;.n.S.S.F.A.A.A.A.A.A.F.s.",
"y.F.z.l.l.l.Z.A.A.D.A.D.&.3 K *X*X8XrXB.k.0 d j J B 4.:.- p z D Y Y Y Y 3.:.e f Y E <.x.p.1 H ;X$XXXo.h.A.A.F.A.A.l.A.A.A.A.A.s.",
"a.Z.Z.A.l.l.A.A.A.D.A.A.l.+.= {.=X;XyXeXx.*.O p S B f m M M D Y Y Y x j e q.Y J.E m -.j.W b #X>X#X2.=.l.A.F.A.A.A.A.A.A.l.A.A.s.",
"a.A.A.A.l.l.l.A.A.A.A.A.A.l.^ t OX>X>XiXW.k.' + k g . z Y P P P Y z j e j R %XJ.J X.k.] > XX&X&X8.#.Z.F.S.A.F.A.A.A.A.l.A.A.A.s.",
"y.D.A.A.A.l.l.A.A.l.A.A.l.F.h.8 n #X;X6X(.S.Z.7 d g . Z T Y F S Z p . p Y Y Y Y f v.D./ H ,X$X|.;.l.A.D.A.A.A.A.A.l.A.A.A.A.F.s.",
"i.A.A.Z.l.l.A.A.A.A.A.A.A.A.A.&.O U &X6X(.Z.Z.@.$ g   i d g a e       . e &     v f.l.0 I >X;Xw.n.A.F.n.n.A.F.F.A.A.A.l.A.A.A.u.",
"i.A.A.A.A.l.A.A.A.A.A.l.A.A.A.Z./ H =X2X(.z.A.p.o h  .7 , 1 6 ! ] / , 1 W ' O . <.z.D.0 I >X8XQ.n.A.A.A.A.A.A.A.A.A.A.A.A.A.A.p.",
"i.A.A.A.A.l.l.A.l.A.A.A.A.A.A.A.~ J >X6X(.z.A.l.8 s >.z.j.l.k.l.A.l.k.g.k.h.O p ;.S.l.0 I >X4X^.A.F.A.A.n.A.S.A.A.A.A.A.A.A.F.s.",
"i.A.A.A.l.l.A.A.A.A.A.A.l.A.A.A.~ H =X6X(.l.A.A.@.# e.S.l.A.A.l.l.A.D.Z.l.@.@ u x.A.l.0 I >X4X^.A.A.A.A.A.A.A.A.A.A.l.A.A.F.F.s.",
"i.A.A.A.A.l.A.A.l.A.A.A.A.A.l.S.^ K *X5X(.z.A.l.k.8 c M.A.F.A.A.A.A.Z.A.k.W $ $.l.l.l.7 I =X6X~.A.A.A.A.l.A.A.A.F.A.A.l.A.A.F.d.",
"y.l.D.A.A.A.A.A.A.A.A.A.A.A.A.A.^ K *X5X(.z.l.l.l.a.4 o.c.A.A.A.A.A.A.A.&.o  .j.l.l.l.7 L 1X6X^.S.A.A.A.A.A.F.A.A.A.A.A.A.A.A.p.",
"y.A.A.l.l.l.A.l.A.A.A.l.l.A.A.F.^ K =X5X(.l.l.k.l.l.*.9 $.F.A.A.l.A.A.g.Q 9 a.k.l.l.j.9 L 1X4X^.S.F.A.n.A.A.A.A.A.A.F.D.A.A.A.s.",
"p.A.D.A.l.l.A.A.A.A.A.A.A.A.A.D./ K =X2X!.n.n.z.n.n.m.b.=.F.A.A.A.A.l.] W a.c.c.z.z.n.{ L >X4X^.A.A.A.A.F.S.A.F.A.A.A.A.A.A.A.s.",
"p.A.A.A.l.l.A.A.A.A.A.A.A.A.A.A.^ H =X2X:XU.P.U.U.T.Y.eXV.A.A.A.A.l.A.*.9 r.T.T.I.I.T.r.|.>X4X^.n.A.A.A.F.A.A.A.A.F.F.A.A.A.F.s.",
"a.A.Z.Z.Z.l.l.Z.A.A.A.A.l.A.A.D.Q H 1X$X;X<X>X1X1X1X1XyX'.x.D.A.A.D.g.7 n ;X1X1X3X,X;X;X>X;X4X^.A.A.A.A.A.A.A.A.A.A.A.F.A.A.F.g.",
"a.A.Z.Z.A.A.l.A.A.A.A.A.A.A.A.A.^ K 1X$X;X;X;X;X;X;X$X1XiX/.l.F.A.A.' t oX;X<X<X;X;X;X;X>X>X9X^.l.A.A.A.A.n.A.A.A.A.F.F.A.S.F.s.",
"a.D.Z.Z.A.l.A.A.A.A.A.A.A.A.A.A.Q C oXXXoXoXoXoXXXoX$X<X5XiXR.A.Z.%.= ].;X$X#XoXoXXXoXoXoX.X;X~.S.A.F.A.A.A.A.A.A.A.F.A.A.A.F.s.",
"a.D.A.A.A.A.A.A.A.A.l.A.A.A.l.l.`   # # @ @ $ @ $ $ L *X*X0XrXV.y.3 H 1X;X Xs @ # @ @ @ @ # > e.A.F.A.A.A.A.F.A.F.A.A.A.A.A.A.d.",
"a.D.A.A.A.A.A.l.A.A.A.A.A.A.A.l.g.O.+.O.@.O.+.+.+.^ - [.=X=X0X_.0 b $X;X+X2.#.O.+.O.O.+.O.O.+.a.A.A.l.A.A.A.A.S.F.A.A.A.A.F.A.s.",
"a.Z.Z.A.l.A.A.A.A.A.A.A.A.A.A.A.F.A.A.F.F.F.D.A.F.l.^ t oX>X2X9Xn XX;X;X8.$.A.A.A.l.A.A.A.l.A.A.A.A.A.A.A.A.A.F.A.A.A.A.A.A.A.s.",
"a.D.Z.A.A.A.A.A.A.A.A.A.A.A.A.A.A.n.A.A.F.n.A.Z.A.F.g.5 n %X<X1X#X<X$XL.;.j.A.A.A.A.A.A.A.A.A.A.A.A.A.A.A.l.A.A.A.F.F.A.l.l.A.s.",
"y.A.A.A.A.A.l.A.l.A.A.A.A.A.A.A.A.A.A.A.A.A.A.A.A.A.Z.t.3 I >X<X;X;XXXo.d.A.A.A.A.A.A.A.A.A.l.A.A.A.A.A.A.A.A.A.S.A.A.F.A.l.A.s.",
"y.D.A.l.A.A.A.A.A.A.A.A.A.A.A.A.A.A.l.A.l.Z.A.A.A.l.A.A.O.= {.1X;X#X2.a.A.A.A.A.A.A.l.A.l.A.Z.A.A.A.A.n.A.A.A.A.A.F.A.A.A.l.A.g.",
"y.A.A.Z.A.l.A.A.A.A.A.l.A.A.A.A.A.l.A.A.A.A.A.A.A.A.A.A.j.Q t #X$X8.$.A.A.A.A.A.A.A.A.A.A.A.l.A.A.A.A.A.A.A.A.A.l.A.A.A.l.l.A.s.",
"p.A.A.A.A.Z.A.A.l.A.A.A.A.A.A.l.A.A.l.A.A.A.A.l.A.A.A.A.A.p.2 n K.;.h.A.A.A.l.A.A.A.A.A.A.A.A.A.A.A.A.A.A.A.A.A.A.A.A.l.l.A.A.s.",
"p.A.A.A.A.l.A.A.l.A.A.l.l.A.A.A.A.A.A.A.A.A.A.A.A.A.l.A.A.A.=.3 ..i.A.A.A.A.A.l.A.A.A.A.A.A.A.A.A.A.A.A.A.A.A.A.A.A.A.l.l.l.A.u.",
"u.A.A.A.A.A.A.A.A.A.A.A.A.A.A.A.l.A.A.l.A.l.A.A.A.A.A.A.A.A.A.@.@.l.l.l.A.A.A.A.l.A.A.A.F.A.A.A.l.A.A.A.S.F.A.A.A.A.A.A.l.A.A.s.",
"p.A.A.A.A.A.A.A.A.A.A.A.A.A.A.l.A.A.A.A.A.A.A.A.A.A.A.A.A.Z.D.l.k.A.A.A.A.A.A.A.A.A.A.F.A.A.A.A.l.A.A.A.A.A.A.A.A.l.A.l.l.l.l.u.",
"i.A.A.l.l.A.l.l.A.D.A.D.A.A.A.D.Z.l.A.A.l.A.A.A.A.A.A.A.A.l.D.A.A.D.D.A.A.l.A.l.A.A.F.A.A.F.S.A.A.F.A.F.A.A.A.A.A.A.A.A.A.l.A.s."
};
