/* XPM */
static char *d9ec289d68b74413c81e79a06a8ab48c3uBf1v714UXFtmTA[] = {
/* columns rows colors chars-per-pixel */
"64 64 237 2 ",
"   c #2F1D17",
".  c #2C1719",
"X  c #2D1B1C",
"o  c #351D19",
"O  c #311D1E",
"+  c #2E2118",
"@  c #35221E",
"#  c #3A241E",
"$  c #1F1D23",
"%  c #231D24",
"&  c #2D1D21",
"*  c #321E21",
"=  c #2E2023",
"-  c #2B252C",
";  c #342123",
":  c #3B2523",
">  c #3C2923",
",  c #34242C",
"<  c #3A282B",
"1  c #3C2A2B",
"2  c #2F2A32",
"3  c #342C33",
"4  c #3B2A35",
"5  c #3C2C34",
"6  c #393137",
"7  c #3D343C",
"8  c #40261F",
"9  c #412623",
"0  c #442B25",
"q  c #482B27",
"w  c #432C2A",
"e  c #4A2E29",
"r  c #45322C",
"t  c #493328",
"y  c #4C332D",
"u  c #52352D",
"i  c #422D33",
"p  c #422E3A",
"a  c #542F34",
"s  c #443336",
"d  c #4C3434",
"f  c #43353C",
"g  c #4B333C",
"h  c #47393B",
"j  c #4C3A3C",
"k  c #543632",
"l  c #533B34",
"z  c #543C3D",
"x  c #583939",
"c  c #56423B",
"v  c #5A4438",
"b  c #5B443C",
"n  c #61433D",
"m  c #634A3E",
"M  c #3E3942",
"N  c #4C3640",
"B  c #433C43",
"V  c #4B3D43",
"C  c #453F49",
"Z  c #4C3F49",
"A  c #543D44",
"S  c #553C47",
"D  c #5B3D42",
"F  c #603F43",
"G  c #484248",
"H  c #4B434C",
"J  c #544344",
"K  c #5C4444",
"L  c #5D4943",
"P  c #53444C",
"I  c #5B444C",
"U  c #54494E",
"Y  c #5C4A4C",
"T  c #4C4651",
"R  c #4E4A54",
"E  c #544B53",
"W  c #574C57",
"Q  c #5C4B53",
"!  c #5B5155",
"~  c #59535B",
"^  c #5D535B",
"/  c #624444",
"(  c #644C44",
")  c #6A4D45",
"_  c #63454C",
"`  c #644B4C",
"'  c #6C4D4B",
"]  c #704E4D",
"[  c #68534A",
"{  c #6C524C",
"}  c #72534C",
"|  c #72594E",
" . c #634B53",
".. c #664C57",
"X. c #6C4D53",
"o. c #724E53",
"O. c #724F5B",
"+. c #645255",
"@. c #6D5354",
"#. c #6B5A55",
"$. c #63555C",
"%. c #6C545B",
"&. c #63585E",
"*. c #6B5A5C",
"=. c #735353",
"-. c #795355",
";. c #755C54",
":. c #7A5B55",
">. c #74545B",
",. c #79555B",
"<. c #735B5D",
"1. c #7B5B5B",
"2. c #7D625B",
"3. c #7A655B",
"4. c #5D5762",
"5. c #645B63",
"6. c #665A66",
"7. c #6C5C63",
"8. c #745B62",
"9. c #755864",
"0. c #7B5B65",
"q. c #7C5D6B",
"w. c #735C73",
"e. c #6C6166",
"r. c #6C636A",
"t. c #69656A",
"y. c #746265",
"u. c #7B6265",
"i. c #7D6964",
"p. c #74646B",
"a. c #7A656B",
"s. c #756A6E",
"d. c #7B6A6D",
"f. c #6E6570",
"g. c #756B72",
"h. c #7B6D73",
"j. c #786876",
"k. c #7C7175",
"l. c #7C737A",
"z. c #7C777F",
"x. c #815F5B",
"c. c #81635D",
"v. c #83685E",
"b. c #815E63",
"n. c #815F6C",
"m. c #826463",
"M. c #846A64",
"N. c #8A6B65",
"B. c #84646C",
"V. c #8A656D",
"C. c #846B6C",
"Z. c #8A6B6C",
"A. c #8C726B",
"S. c #88766A",
"D. c #91776D",
"F. c #856572",
"G. c #846B72",
"H. c #8C6B72",
"J. c #8A6A77",
"K. c #926B74",
"L. c #827275",
"P. c #8D7377",
"I. c #83757C",
"U. c #8D747A",
"Y. c #83787E",
"T. c #947474",
"R. c #957973",
"E. c #98797A",
"W. c #9C817D",
"Q. c #A2867E",
"!. c #7E7882",
"~. c #847B83",
"^. c #8A7D83",
"/. c #877888",
"(. c #937C83",
"). c #977988",
"_. c #987D92",
"`. c #A27C8A",
"'. c #8A8389",
"]. c #8C848C",
"[. c #93858C",
"{. c #9A8589",
"}. c #9A858D",
"|. c #93898E",
" X c #8E8592",
".X c #948B93",
"XX c #968897",
"oX c #9A8D95",
"OX c #9B8D9C",
"+X c #9D9196",
"@X c #9D929A",
"#X c #A68885",
"$X c #AC8C8A",
"%X c #AC918A",
"&X c #B19289",
"*X c #A58B98",
"=X c #A3949D",
"-X c #A99499",
";X c #B79696",
":X c #9C92A1",
">X c #A49AA4",
",X c #AB9CA5",
"<X c #AD90A8",
"1X c #A799A8",
"2X c #B393A8",
"3X c #A6A1A8",
"4X c #ABA1AD",
"5X c #B5A3AA",
"6X c #ADA4B2",
"7X c #B4A5B3",
"8X c #B5ADB5",
"9X c #BAACB5",
"0X c #BCA5BA",
"qX c #B6AEB8",
"wX c #BBAEBB",
"eX c #B9B2B9",
"rX c #BBB3BD",
"tX c #C39B9B",
"yX c #CCA7A8",
"uX c #D2ACAF",
"iX c #C5A8B5",
"pX c #C3B3BD",
"aX c #CAB7BB",
"sX c #D8B6B8",
"dX c #BEB6C0",
"fX c #BFB9C4",
"gX c #C3B5C2",
"hX c #C3BAC5",
"jX c #C9B9C6",
"kX c #C5BBC9",
"lX c #CABECC",
"zX c #D9BEC3",
"xX c #CCC2CD",
"cX c #D8C3C7",
"vX c #CEC4D2",
"bX c #D5CAD5",
"nX c #D6D0DB",
/* pixels */
"dXhXfXhXhXfXrXeX8X3X.Xt.G M M M G B B G V V V A J  .Y A J  .%.*.8.q.p.~.1X7X0X7XOX/.XXOX7XvXbXnXnXnXbXxXhXhXfXrXrXrXrXrXrXrXeXeX",
"hXhXhXkXdX1X:X>X>XOXf.T C B R R R H G B j V J K K X.` K / X.@.>.,.<.0.F.*X0X0X0X<XXX/././.wXvXbXbXbXvXkXhXhXdXrXrXrXrXrXrXrXeXeX",
"hXkXkXkXqX1X6X>X.Xg.W W T H G B C G 7 f j A K D / ' ' ' ' =.=.>.,.>.>.q.U.*X7X0X<XOX/.w.j.1XwXqXlXvXxXlXhXhXgXrXrXrXrXrXrXrXrXeX",
"hXkXkXhXwXqX6X4X.X5.H G B B M C H M 7 V J c b n ) ' ' ' ] =.-.-.-.=.=.,.a.U.)._.*X<X*X_.w.l.OX/.>XlXxXxXhXgXgXrXrXrXrXrXrXrXrXrX",
"kXkXkXkXdXqX8X4X].~ G C C B G T G G Z A J z K ( ' ' ' ' } :.:.x.:.=.=.,.9.0.F._.*X2XiX2X_././.l.j.wXxXlXhXgXdXrXrXrXrXrXrXrXrXrX",
"kXlXlXkXwXqX1X@X].^ G G Z G H E E U V A K ` ` ' ' ' ' ' =.:.x.c.x.>.>.9.0.q.n.U.`.2XiXiX<X_./.l.5.:XvXxXhXgXdXrXrXrXrXrXrXrXrXrX",
"kXlXlXkXwX1XOX@X'.~ R T R H G E ^ P j j K ` ' ' ' ' ' ' =.,.b.m.m.1.,.0.J.F.0.F._.*X2XiX2X_././.6./.xXxXhXgXdXdXrXrXrXrXrXrXrXrX",
"kXlXlXdX1X>X:X.Xl.W T T T E H G U J J J K K ' { ' ' } =.=.,.b.B.V.B.b.n.F.q.9.0.n.F.J.).).)././.f./.xXlXhXdXdXdXdXdXdXrXrXrXrXrX",
"kXlXkXhXOX/.].!.6.T G H T W E U E Y Y +.%.@.{ { } =.=.=.>.1.b.V.H.H.G.F.q.0.0.q.9.0.n.q.q.j.I./.l..XxXxXhXdXdXdXdXdXdXrXrXrXrXrX",
"gXjXjXgX:Xj.6.4.T C B E E ^ W ^ ^ ! Y #.<.1.=.{ { { } =.>.1.B.B.F.F.F.j.j.q.>.J.n.0.V.0.>...Q ^ W g.rXxXhXrXdXdXdXdXdXrXrXrXrXrX",
"wXwX9X7XOX/.!.~ T T C 4.4.5.5.^ 5.+.+.<.u.u.<.%.@.{ @.X.@.>.9.q.a.q.8.7.8.0.>.J.J.q.0.9. .N 4 4 4 B l.hXhXgXdXdXdXdXdXrXrXrXrXrX",
"pXpXpX7X>XOXz.R T R ~ 6.4.5.r.&.e.+.+.y.C.d.a.8.%. ._ A N g g g g N V A  .%.9.J.J.0.O.X.N 4 p Z E ^ 5.1XhXhXdXdXdXdXdXrXrXrXrXrX",
"wXgXpX4X>X/.6.R T ~ 6.4.E E ^ ^ 5.&.+.y.L.G.a.+.V , & & , 5 5 5 5 4 4 5 f g A 8.B.9._ D N P P P U W H W f.~.>XqXdXrXrXrXrXrXrXrX",
"wXwXwX,X.Xg.5.T W ~ E T B G T W 5.e.&.d.d.&.J h 3 % % 3 6.6.B 3 , , , , 5 f f f I I N g V 5 f V B f B T G B M E '.rXrXrXrXrXrXrX",
"wX7X9X,X~.r.~ T W H G G 7 B G E ^ $.$.Q V s 5 5 2 % $ 6 4.6.7 3 , , , , < 5 5 5 & & & & = f f 5 5 7 f ^ l.g.~ % W qXrXrXrXrXrXrX",
"gXwX,XOX~.l.6.H C G H G M H H E U V h 5 < < , , , - % 2 6 M 3 3 5 5 < < < < , f & ; ; . & C f 5 5 N U r.>XeX6XM !.rXrXrXrXrXrXrX",
"gXjXgX7X.Xl.5.T M 7 G B B H C B 7 < < 5 5 s j j h 5 = - 3 G 5.U N V g i i 4 i g 1 ` I ; & P E I U Q 5.s.@XgXdX4.4XrXrXrXrXrXrXrX",
"gXjXlXlX>Xl.6.H 7 - 2 6 7 7 B E E U $.e.y.y.y.$.+.P - 3 E g.g.P 4 g I N A  ...A z <.B.9.* I $... . ...s..XhXqXj.rXrXrXrXrXrXrXrX",
"gXjXjXjX>Xl.5.C 6 - % 3 W r.g.l.s.p.p.h.d.d.y.+. .U , 5 +.p.*.j i g  . .%.8.8.N X.b.V.$X%.g I A A A I q.k.9X:X XdXrXrXrXrXrXrXrX",
"gXjXjXjX1X/.j.~ M - % E '.].l.Y.e.y.d.d.d.d.y.Q I A s ; s +.*.+._ ` _  .%...g g 9.V.K.`.*XY A .. . . .8.p.~.j.6XdXrXrXrXrXrXrXrX",
"gXjXjXgX,X=XoX~.E 7 C l.'.'.~.Y.e.*.y.d.d.d.y. .I  .$.Y 1 1 s j j z z z g g _ _ >.V.K.K.).P.g N  .%.q.a.5.r.1XdXdXrXrXrXrXrXrXrX",
"gXgXgXwX9X7X7XoXr.7.f.!.~.~.'.Y.e.*.y.a.d.d.u.+.I +.+.K g i 1 * O * ; 1 d 8.G.=.=.V.K.H.V.H.8.g i g N A Q oXpXrXrXrXrXrXrXrXrXrX",
"pXgXgXpXgXpX9X>X7.A  .7.l.~.].^.d.y.y.y.a.G.d.8. .Y Y z g w ; * * : i A <.J.P.m.b.K.E.K.H.V.F.9.I  . ...q.[.rXrXrXrXrXrXrXrXrXrX",
"pXpXpXpXpXpXwX).N g %. .$.s.|.|.I.y.y.y.a.G.G.y.$.Y I A J A J K Y ..0.B.H.P.P.Z.V.H.E.E.K.H.V.H.0.%.>.9.B.[.wXrXrXrXrXrXrXrXrXrX",
"pXpXpXpXpXpX9Xa.x o.V.0.I $.Y.+X^.d.y.y.y.C.d.d.#.Y I Y +.#.8.y.u.G.H.H.H.H.H.V.V.H.E.).E.).K.F.F.,.o.>.B.}.9XrXeXeXeXrXeXeXeXeX",
"pXpXpXpXpXpX9Xa.D -.V._ w I p.].|.L.y.8.8.y.u.y.+.Y K ` @.#.<.<.u.C.H.H.V.B.0.B.H.K.E.E.T.E.K.0.0.,.o.-.0.).9XdXeXeXeXqXqXeXeXeX",
"pXpXpXpXpXpXpX*X,.b.1.x : K 8.h.|.{.L.7.%.@.+.` Y J J K _ X.%.<.u.B.V.V.n.>.>.V.Z.V.m.m.b.,.,.>.X.X.o.o.>.(.9XrXeXqXeXqXqXqXqXqX",
"7X9X9X9X9X9X9X5X(.m.>.x q ` <.y.[.*X^.7.+. .Y Y I J J z D ` >.0.a.B.V.n.,.X.,.0./ w : w x D _ _ _ _ _ ' X.J.7XwXeXqXqXqXqXqXqXqX",
">X,X,X,X4X,X,X,X}.u.=.x a _  .7.^.+X'.g.+.Y Y Y J A z z D ' >.u.m.m.m.0.X.X.>.X.x 9 : d D D D A X.%.` K I d.7XqXqXqXqXqXqXqXqXqX",
"@X@X@X=X=X=X@X=XoXu.@.F / X._ %.^.oX[.Y.y.&.Y J A z A K K ' >.1.b.b.b.=.o.1.1.=.X.1.u.<.` z d  .8.8.C.9. .a.7XwXqX8XqXqXqX8X8XqX",
".X.X.X.XoX.X.X.XoXU.@.X.@.>.Y Y I.[..X'.I.d.! Y J K ` K K X.>.,.,.b.:.o.1.B.H.H.V.B.%. .<. .@.h.(.(.}.*XY.I.7XeX8X8X8X8X8XqXqXqX",
"[..X.X.X.X.X.X.X.X}.u.` @.@.K A p.^.oX[.~.k.e.! Y +.` Y ` @.=.=.,.1.=.o.m.Z.H.H.q.q.7.$.y.y.a.L.[.}.}.,X1X|.7XeX8X8X8X8X8X8X8X8X",
"]. X X X X X.X.X|.}.{.u.` z e K p.~.oXoX^.k.r.&.#.#.Y Y ` @.@.=.>.>.o.>.m.B.C.0.u.a.a.p.L.d.p.d.h.I.^.oX=X>X7XrX9X8X8X8X8X8X8X8X",
"]. X X X X X.X|.oX-X-XE.;.b K #.7.^.[..X~.Y.s.s.p.7.+. .@.@.%.>.=.=.@.0.0.<.u.8.8.h.L.k.I.p.p.p.5.7.p.h.h.=X9X9X9X8X8X8X8X8X8X8X",
"].].].].[.}.*X-X5X5X%XW.M.{ @.` Y Y.[.oX'.~.h.l.h.p.5.$.7.*.<.<.=.X.@.0.<.%.y.p.p.h.g.e.g.&.&.e.J P Q $.6.,XrX9X9X8X8X8X8X8X8X8X",
"'.].[.oX-X-X*X*X;X;X%XE.[ z K j I Y..X.X].~.k.Y.l.l.p.7.7.%.%.>.X.` <.a.%.$.5.s.g.g.6.&.&.E E U < , 5 h 7.9XxXpX9X9X9X8X8X8X8X8X",
"|.oX=X-X#X#X#X$X%X&X%XD.b > : w +.L.|.'.].~.l.Y.Y.~.p.p.&.+.a.<.X.` 8.a.5.5.&.e.5.W E H h 5 < , , < 5 N L.pXbXbXcXaX9X8X8X8X8X8X",
"|.|.(.P.E.#X$X$X%X&XQ.M.( r   ; Y k.'.].|.~.~.k.~.^.g.p.*.y.d.8.8.+.y.d.r.^ ^ E B 7 7 4 < , < h J J J E U.iXzXzXcXcXaX9X8XqX8X8X",
"i.C.U.{.$X$X#X#X%X#XR.v.( r + X J k.]..X].~.l.k.~.~.l.s.e.s.h.d.d.y.s.s.f.E C B 7 5 5 g A A I Q I A I 8.(.iXsXsXsXsXcXzX5X{.[.[.",
"C.C.T.#X$X#XQ.#X#XW.A.v.( y     J *.'..X].l.g.l.'.Y.l.I.s.k.h.L.L.L.s.e.5.V f f N A I  .7...I A A A I h.(.{.;XyXyXyXuXsXuXU.Y Y ",
"T.E.E.W.E.R.W.Q.R.D.N.;.m y   O K +.I.|.'.l.z.'.'.~.Y.I.Y.Y.Y.^.Y.h.h.^ H f f g A I ......A N A I I %.U.}.P.H.#X;XtXtXyXuXuX#X@.",
"T.T.T.A.N.R.W.R.A.D.M.{ b y   @ Y +.y.[. X~.!.z.~.~.Y.'.Y.l.^.I.I.h.j.^ V V A A A I I Q J J Q $.+.$.p.U.}.U.Z.Z.T.#X;X;XtXyXsX;X",
"E.T.M.2.N.E.R.M.M.A.2.( v r O ; ` @.%.d.]. X'.~.~.~.~.l.k.l.Y.h.h.p.p.$.Q Q $.Q I Q Q E W &.$.p.5.$.e.Y.}.P.C.C.M.N.R.$X$X;XuXsX",
"E.A.M.N.R.R.M.3.v.N.;.m c r O O K @.@.@.d.'.~.z.l.Y.l.l.l.l.g.l.l.I.s.7.$.$.$.Q Q  .E Q 5.5.&.&.^ 5.e.Y.(.H.M.m.m.1.;.c.T.E.%XyX",
"i.3.A.D.S.3.;.;.;.3.;.b l w . X d @.{ [ ` y.l.~.~.~.l.g.r.r.s.l.l.~.l.p.5.U E U P U B H 5.&.^ &.^ r.g.^.{.H.m.u.1.:.} ' ;.Z.T.$X",
";.M.D.S.3.| | [ [ | [ b l w . X w ` { [ L Y +.s.l.l.g.5.5.r.g.g.g.~.g.r.^ P ..E E ^ H U 5.5.&.5.e.g.l.^.(.H.m.m.c.;.{ =.N.A.T.R.",
"3.S.S.3.| | [ m ( m m c l w X O ; K @.[ K K j I ^ r.g.e.r.r.e.^ g.l.5.r.&.$.&.&.^ ^ ^ ^ 5.&.5.5.5.r.g.^.U.C.M.m.{ b / =.m.Z.A.Z.",
"[ i.M.;.[ ( [ m v v v c y w O O O d [ ` ( c j h V H ^ 5.6.5.! ^ r.6.&.5.r.5.W &.5.^ 5.^ ^ E ^ ^ ^ &.s.Y.U.Z.;./ x x n ' 1.M.N.N.",
"y l [ [ ( b ( m v l l u t 0 O O O w ( ` / z d d s h h P W W U ^ r.^ ! ^ r.5.^ ^ &.^ &.W E E U E E ^ p.U.C.' x ) =.{ ) ' :.m.M.N.",
"r > L [ b b ( v l u y t t 0 O O O : l ( K z d w w 1 w i V P H W ^ ^ 5.5.5.t.4.5.5.r.5.^ ^ ^ U H U $.p.8.b n =.1.1.{ ) [ ;.M.N.M.",
"> r #.#.v b b v l t t 0 y > O O O o > z c l y 0 ; ; : 1 i i h H E ^ 5.5.r.r.5.t.r.r.^ ^ &.^ E Y +.<.` c { c.2.1.1.=.' [ ;.M.M.m.",
": d C.3.L v v c u t t 0 r : O O O O O > d d w : * O * * : ; , , 5 V V f H ! 5.r.p.5.E ! ^ U V J <.u.` =.c.c.1.1.:.=.{ ' ;.c.c.1.",
"@ w i.3.( v v l w 0 0 > w 1 ; ; O X X X ; > : ; * * * O O O & & ; , = & , 3 V $.&.H B B f i 1 K u.C.M.2.m.m.1.:.:.} ) ) } c.c.:.",
"@ O c 3.[ v l y w 0 0 > w s ; ; * X X . . O O X O O O X O O X X X & & & X & ; < , , , , ; * > ` u.m.M.m.m.m.2.:.:.{ m ) } ;.:.:.",
"@ O @ [ [ v c y w 0 0 : > j 1 ; ; X X . . . . . . . . X * O X X X X X X X . . . . X ; * * * w / ' ' :.m.m.m.c.1.:.' n ) } ;.;.:.",
"@ @ O > l L b y w 0 > : > J 1 ; * X X . . . . . . . . * ; * X X X O X . O X X X X & ; ; ; ; w k k x :.c.c.1.;.} ' ) n m } } ;.c.",
": : @ @ # c b y 0 9 > @ 1 J w ; ; & X . X X X . . . O * ; ; X X O O O O O * O X X & O # ; : 0 e y l ( ' ' ) b x x x k x m } c.v.",
": > : @ @ > y t 0 > # @ 1 Y s ; * & X . . X . . X O * ; ; * O X O O O O O * O X . * * # : : w y e e k k k k k u u u u u x } c.N.",
"> > > # # # > w > : # @ r Y s ; * & X . . . . . X * * * ; * O O O O * * * * * X . * ; : : : 0 k e e y y e u u e e u e e x { c.M.",
"> > : : > @ r 0 : # # @ s Y h @ * X X X . X . . O O * * & X X X O * * * ; ; @ X X ; ; : : : 9 y e 0 e y q q q 0 0 q q e x { 1.v.",
"> > : : : > r > : : # @ h U h X & X X X X X X X O O * * * X X X O O O O ; @ @   O ; : > 9 > 9 e 0 9 9 y q 9 0 9 8 9 0 e l ) 2.M.",
"> > : @ @ r > : : : # : h J h X &     O O O * * O O * * O X X O O O O O ; @ O   * ; < w w 0 9 0 0 9 8 e y 9 9 # # # 9 e v } 2.c.",
": : : ; > 1 > : : > : > j J j ; & X X O * * * * * * * * * * O O O O O O ; ; X X * : w w w 0 9 0 0 9 8 0 y 0 8 o o # 9 y ( ;.} 2.",
": : ; @ > 1 > : : : : 1 j J J = = = = X & & & & = = = * * ; = = = ; * * * * * O * : 1 w w w w 0 9 : # 9 0 0 : o o # 9 k { ;.1.M."
};
