/* XPM */
static char *panaR1730644896[] = {
/* columns rows colors chars-per-pixel */
"64 64 256 2 ",
"   c #1B0200",
".  c #1C0A00",
"X  c #160202",
"o  c #130407",
"O  c #230200",
"+  c #230B00",
"@  c #2A0702",
"#  c #340A02",
"$  c #2E1400",
"%  c #291502",
"&  c #321400",
"*  c #3D1500",
"=  c #351B01",
"-  c #381809",
";  c #281A19",
":  c #371A17",
">  c #270A1A",
",  c #3E250B",
"<  c #382503",
"1  c #3A2818",
"2  c #342F14",
"3  c #2E1A24",
"4  c #3D3432",
"5  c #1E210E",
"6  c #431600",
"7  c #4A1D01",
"8  c #441A06",
"9  c #491917",
"0  c #452303",
"q  c #4A2403",
"w  c #42290D",
"e  c #48270A",
"r  c #522708",
"t  c #4B2C13",
"y  c #462815",
"u  c #552A18",
"i  c #4B351B",
"p  c #563718",
"a  c #54360A",
"s  c #643A18",
"d  c #6C3709",
"f  c #562D25",
"g  c #4B3726",
"h  c #553A24",
"j  c #5B3C24",
"k  c #523D2C",
"l  c #593629",
"z  c #4C3837",
"x  c #533C34",
"c  c #5B3D34",
"v  c #5A3D3A",
"b  c #543B37",
"n  c #4D2B2A",
"m  c #673C28",
"M  c #663D37",
"N  c #703A2F",
"B  c #584216",
"V  c #694419",
"C  c #76491D",
"Z  c #714B12",
"A  c #54412D",
"S  c #5B432C",
"D  c #5A4527",
"F  c #4C4237",
"G  c #5A4433",
"H  c #5D433B",
"J  c #584437",
"K  c #65442B",
"L  c #644A2A",
"P  c #6A4B2C",
"I  c #684526",
"U  c #744B24",
"Y  c #774929",
"T  c #7D542D",
"R  c #77542A",
"E  c #634433",
"W  c #6B4A33",
"Q  c #6C4B3C",
"!  c #674638",
"~  c #744B38",
"^  c #6B5237",
"/  c #765638",
"(  c #6E522C",
")  c #7D643B",
"_  c #3E3E40",
"`  c #4D3942",
"'  c #5A4745",
"]  c #5F5242",
"[  c #664B43",
"{  c #6D4C43",
"}  c #6C4C4A",
"|  c #694544",
" . c #754C45",
".. c #6C5549",
"X. c #745144",
"o. c #795947",
"O. c #775454",
"+. c #6E4D53",
"@. c #7C6448",
"#. c #873818",
"$. c #883826",
"%. c #8B4E18",
"&. c #96671A",
"*. c #AE700F",
"=. c #854927",
"-. c #855729",
";. c #98582A",
":. c #845632",
">. c #865A37",
",. c #965B35",
"<. c #8F4C33",
"1. c #A65C29",
"2. c #A75B39",
"3. c #B05C3C",
"4. c #9A6827",
"5. c #89653A",
"6. c #9A6439",
"7. c #98673A",
"8. c #967139",
"9. c #A7652A",
"0. c #B36B2E",
"q. c #AF6E31",
"w. c #AC6C3D",
"e. c #A56739",
"r. c #B46C33",
"t. c #B56A38",
"y. c #A7743A",
"u. c #B47235",
"i. c #BC7B3C",
"p. c #B87739",
"a. c #AF772A",
"s. c #A75C19",
"d. c #C47839",
"f. c #C06C39",
"g. c #885745",
"h. c #975B45",
"j. c #8C5C50",
"k. c #8B6846",
"l. c #9D6C42",
"z. c #976745",
"x. c #9A7947",
"c. c #8A6A55",
"v. c #976854",
"b. c #967656",
"n. c #8D7351",
"m. c #A26E44",
"M. c #A56946",
"N. c #A4754C",
"B. c #AA744B",
"V. c #A3794E",
"C. c #AA7748",
"Z. c #B47D4B",
"A. c #BA7E4B",
"S. c #B77744",
"D. c #A17651",
"F. c #A37952",
"G. c #AA7A51",
"H. c #A77A5A",
"J. c #B47C56",
"K. c #AE6A4B",
"L. c #9D7968",
"P. c #8C7164",
"I. c #A67868",
"U. c #AC5D42",
"Y. c #C67B45",
"T. c #D17F45",
"R. c #BB863A",
"E. c #B88F31",
"W. c #C8873A",
"Q. c #CB953D",
"!. c #D39536",
"~. c #D1A532",
"^. c #E5A83A",
"/. c #D29D29",
"(. c #AA8749",
"). c #BC8344",
"_. c #BC824A",
"`. c #B88849",
"'. c #BA934C",
"]. c #B98856",
"[. c #BA9459",
"{. c #A98656",
"}. c #9D846C",
"|. c #A48564",
" X c #A98565",
".X c #BA8A64",
"XX c #B89767",
"oX c #B59475",
"OX c #BBA376",
"+X c #BEA058",
"@X c #C88748",
"#X c #D58948",
"$X c #C99649",
"%X c #D59947",
"&X c #C58956",
"*X c #D58C54",
"=X c #C99556",
"-X c #D59958",
";X c #E59949",
":X c #E08942",
">X c #D8A54C",
",X c #DCAC5C",
"<X c #D7A756",
"1X c #D3AC54",
"2X c #E5A64C",
"3X c #E7A856",
"4X c #E7B659",
"5X c #E8B94A",
"6X c #C89865",
"7X c #D59C68",
"8X c #C89A75",
"9X c #CC936A",
"0X c #CAA468",
"qX c #D7A867",
"wX c #DEB464",
"eX c #C9A777",
"rX c #D6AC76",
"tX c #DAB378",
"yX c #CDB173",
"uX c #E6A967",
"iX c #E8B768",
"pX c #F1B569",
"aX c #E4AD74",
"sX c #EAB876",
"dX c #F4BA77",
"fX c #F0AD69",
"gX c #E59F68",
"hX c #EBC578",
"jX c #F4C979",
"kX c #F0C46C",
"lX c #E7C14F",
"zX c #CCA781",
"xX c #D9B987",
"cX c #D7AE8B",
"vX c #E5B987",
"bX c #F5BC84",
"nX c #E5BB95",
"mX c #E9AF8C",
"MX c #DEBAA4",
"NX c #EDC48B",
"BX c #EBC687",
"VX c #F4CD8B",
"CX c #F6C788",
"ZX c #FAD38A",
"AX c #EAC69A",
"SX c #F4CA93",
"DX c #F8C898",
"FX c #FCD698",
"GX c #EECCA6",
"HX c #F8CCA3",
"JX c #FCD7A7",
"KX c #F1D4AF",
"LX c #FFE4AA",
"PX c #FFEFB3",
"IX c #FFE495",
"UX c #DFC4A2",
/* pixels */
"<.U.t.9.s.s.w.3.3.1.*.*.*.*.*.a.R.a.W.W.W.W.W.!.!.!.!./.~.^.^.^.2X2X3X3X4XfX4XpXiXuX4XpXpXpXpXpXiXiX4X4XlXlXlX5XlX>X,XuXgX*XT.*X",
"$.h.0.9.s.9.2.,.U.1.s.*.*.*.a.W.p.i.W.R.W.W.$X%X$X%X%X2X2X2X2X2X4XfXiXiXpXsXdXpXiXiXiXpXiXiXiXsXdXsXkX4XlXlXlXlX4X1XuX-X*X*XT.T.",
"$.,.1.&.9.9.h.U.h.K.e.a.a.y.`.J.].].].=X=X0X0X0X6X6X0XqXwXwXwXtXbXvXvXvXNXvXBXNXSXSXSXSXSXSXSXNXDXHXDXZXjXjXjXjXVXZXCXuX-X=X*X@X",
"=.e.&.&.q.M.h.I.I.I.G.{.{..XoXoXoX8X8X8XeXzXzXzXAXAXAXNXGXAXAXAXGXGXGXGXGXGXGXGXAXAXUXAXnXAXnXMXMXMXMXxXxXtXxXxXOXyX0XtXaX%X!.E.",
"C y.&.&.E.-.N } | | W P ( ^ +.+.{ Q Q Q Q Q ^ ^ S S A D A A F g h g i g i g i i y 1 w y 1 , , 1 : : : , = < < = a < < +XhXQ.~.E.",
"d e.4.&.E.R # @ O     X     o >   O O         X .   X X o o o o . . . . .   X . . . . . + . . . o + O .   X o   o o . (.ZX1X~./.",
"d M.9.&.'.-.@   > > + % % % > > > - - - - - - ; ; ; ; ; 5 3 ; 5 2 1 2 1 2 2 1 1 2 , 2 2 2 1 2 2 n y 1 1 1 1 1 : 2 : < OXIX1XlXE.",
"d S.9.&.[.k.- : > : - < < 1 1 n y y y y i y u i i g g 4 4 _ _ _ A A i A D D A D A D A D S D J L E E E G G E ' H b [ D OXhX~.lX/.",
"$.2.q.i.S.J.9 9 n - L B Z ( L ( ) ( R 5.k.>.k.v.b.n.}...2 F _ F }.XX{.XXOXXXOXoXOXOXOXXXOXeXOXOXeXeXeXeXcXzXMXP.l M N cXmXkX2X^.",
"$.3.t.S.A.K.9 9 9 N eX+X1XwXBXAXAXAXHXJXJXDXDXHXGXKXKXoX] ^ J ^ KXLXGXPXJXFXPXFXFXKXLXPXLXLXJXFXBXBXVXBXGXMXGXI.N M N zXbXdX2X^.",
"$.3.t.d.Y.J.9 9 @ m vXwX4XwXhXVXxXNXAXBXBXbXCXbXVXDXJXXXB B g L yXVXhXVXZXVXIXFXIXBXBXVXhXBXFXZXIXZXIXCXDXNXAX>.f $.N mXbXdX3X2X",
"#.3.t.Y.@X].u 9 f f qXiXlX1XwXqXBXAXSXBXCXFXFXZXbXCXJXXXB D L ) GXIXIXZXCXBXFXBXVXhXIXPXIXIXFXCXjXkXZXkXCXDXJXk.s N $.mXbXdX3X2X",
"#.1.u.W.'.[.u f l t +XhXkXwXZXVXGXAXAXAXDXDXDXbXFXFXJX8XR W ^ / xXZXsXNXSXVXFXVXFXZXSXBXsXNXFXJXJXCXFXZXVXVXLX5.d N Y mXbXdX3X;X",
"#.1.a.R.'.XXj l f w OXBXwXwXDXSXKXKXKXLXJXDXDXHXDXDXHX.XP E H W UXFXAXLXLXNXFXDXSXPXLXAXDXFXDXDXAXeXSXJXBXtXAXZ a U =.vXbXdX3X2X",
"d &.a.E.'.+Xh b v x cXBXhXbXmXz.@.@.c.n.>.>.J.HXHXDXKXzXo.X...o.GXAXAXGX8Xs q q - eXHXJXPXcXI - u 0 H.AXAXAXLX5.a U R aXhXpX3X2X",
"Z 4.E.E.$XXXj b z h eXyXrXCX.XO X o X     O <.HXmXnXHX8XX.[ ..O.nXAXAXLXXX$   O @ zXHXxXLXzX8 O O   n.GXFXxXSXR s R -.tXhXiX2X5X",
"Z 9.p.W.*X6XL J k y 0XsXdXbXXX@   +     $ @ V SXbXbXFX9X:.X...o.nXsXBXVXOX= @ : # OXVXVXSXxXy - @ - {.sXjXjXJX:.f / :.tXiXiX2X2X",
"V 8.p.T.*X7XK G x p rXdXdXdX0Xt f v n g h t 5.DXCXdXFX9X:./ } o.DXhXjXZXyXp b [ m xXZXhXZXNXM M | ~ 0XZXjXdXDX~ l  ./ tXiX4X2X;X",
"V y.p.W.*X7XK G G p aXdXfXdXtX/ X.O.} { o.L k.DXCXdXFX6X:./ ..c.CXdXjXBXzXD } O.X.nXZXkXhXBXQ +.O.o.0XjXjXiXHX~ M  .:.wXpX4X3X;X",
"V 7.p.T.*X7XK G k f rXfXgXfXxX@.{ } ' ..@.P 5.NXdXdXDX7X:./ ..o.CXpXhXhXeXD [ O.Q nXZXkXVXxX! | } ~ 0XhXpXfXHXg.f  ./ rX4XfX2X;X",
"V 7.p.d.*X7XI G G i qXfXuXsXyX/ { } H [ o.P 5.SXdXdXDX9XT / ..o.DXdXjXBXyXS [ } ~ nXZXjXjXNXE } O.o.0XjXjXiXDX~ m X./ qX4X3X2X;X",
"s e.u.W.*X7XK G H p 7XsXpXdXyX^ X.+.! [ ..K 5.vXsXdXDX=XT / ..o.bXfXkXhXeXL } |  .mXhXiXhXxXW O.{ ~ 0XCXjXiXDX~ l X.T yXuX4X3X;X",
"s 4.u.d.*X7XK G H i 9XdXfXsXyX/ [ } [ [ o.p R xXsXsXCX6XR / ..o.sXuXiXsX0XL | | ~ cXhX4XiXyXm O.M W =XhXkXiXDX~ l  .T 0X4X3X2X;X",
"s 5.u.d.*X7XL G G t 7XfXuXuXeX/ E } [ ..o.D -.vXaXfXCX&XR ~ [ o.vXiXkXwXeXP  . .~ cXhXkXjXrXm } +.X.6XjXkXiXDX~ M  .R qXuX3X3X;X",
"V -.R.d.*X&XQ A A p 6XuXuXuX8X/ { M } [ ! P T rXaXuXdX].Y W ! X.aXfX,XkX[.( [ { ~ rXpXiXiXtXK | } ^ XXkXiXuXnXN f  .T 0XwX3X2X;X",
"s -.i.d.*X&X~ A J i =XgXuXuX0X/ X.' } ! ^ L ) tXaXuXdX].Y K ! X.uXfX,XsX{.( [ | ~ 8XaX4XiXyXm | } ~ [.hXiX4XnXI m  .R 0X,X4X3X;X",
"V -.d.d.@X&X~ A G i 6XgX3XuX+X/ { v } ' ! L T rXuXuXdX].U W ' / qX3X3XwX].P Q | ~ 8XiX4X4XrXI M } ~ [.kX4X,XnXN f  .T 0X4X3X2X;X",
"B %.p.d.*X&X( k A u =X-X3XqXOX) { J } ! W L T rXqX7XdX].U K ! Q qXfX,XiX{.U M Q ~ 9XiX,X,X0Xm ! | W XXiX4X<XvXN l  .Y 0X,X3X;X;X",
"V %.d.d.#X@X~ k A t =X-X-XqXXX/ [ v [ H ! K T rXqX-XaX_.U K H ^ 7X3X>XwX'.V ! ! N 9XiX4X3X0Xm M | ~ ].wX4X<XvXm f ~ R =X<X3X;X;X",
"B -.u.d.@X].W k A t &X-X-X-XXX/ ! v | H E D R rXqX-XaX`.U m J ~ 7X3X>XwX(.I M M ~ 9X,X>X1X7Xf M | ~ ].wX1X-XcXN f Q ( 0X,X2X;X%X",
"d -.p.d.@X].W k k t ].*X;X-X6X( ! v | E G I R eX7X-XuXC.V K c Q 7X3X>X,X(.V m M Y 9X3X>X>X0Xs M | W ].wX1X>XmXN f Q ( 0X<X2X;X;X",
"B -.p.u.#X&XW l k w &X=X-X-XXX/ ! b H J E D R qX-X-XaXZ.s K G W -X2X>XqX{.m M M P 6X,X1X<X=Xs M ! P {.1X1X-XcXm f Q V 0X<X>X;X:X",
"p T p.0.Y.A.E k J t &X@X#X-X[.( G x [ A D I R 6X<X*XuXC.V I F L %X^.$XrXI.c E E V 6XwX'.1X8Xr ~ K U `.$X<X=XzXM f ! ( +X>X%X!.:X",
"p T p.u.Y.{.E k J t ].#X#X-X[.( A x ] J A I C 6X-X=XqXp.V D F L $X^.%XeXL.H c G V [.qX1X0X0Xu Y I U '.1XwX=XzXm f ! Z '.>X>X:X:X",
"p -.S.r.A.Z.W A G t ].@X#X$X[.( G x [ J S D U 6X-X=XuXC.V S F P Q.^.$X8XL.c c S B '.0X<X<X6Xs m V C `.1X3X=XgXf f E V +X%X;X#X:X",
"a R u.r.Y.J.E x A e `.#X@X-X[.( G z ' G k D P 6X=X*X7XC.V S F L W.!.@X0XL.c c K p [.-X>X&X].d s U C R.%X-X&XzXf f E Z '.$X%X#X#X",
"p Y u.r.Y.J.K x x e ].@X#X*X[.L H b ' F x h U 9X=X@XgXN.I j b L R.!.$X8Xb.c l D V '.$X-X`.@X,.,.z.;.).%X%X'.8Xf f L B '.Q.Q.#X#X",
"a Y t.r.A.J.W x x w J.@X@X*X{.( b z ' b k j I &X9X&X7XM.s k F G '.!.`.6Xb.k h m V &X@X-X@X-X&X_.9XA.%XQ.Q.R.8Xu f P B '.'.Q.#Xd.",
"t U w.r.Y.J.W x n w Z.@XW.@X].P v ` ' ` x l K .X&X&X7XM.s c F G R.Q.`.6Xb.h h s s &X@X-X@X-X7X9X8X&X%X%XQ.).9Xu f E B `.R.$X#XT.",
"a U w.r.A.J.! z x y ].Y.@X=X].K b ` ' b k l m 9X&X@X7XB.m c F H @XW.`.6Xb.p p j s .X_.7X@X@X7X&X9XS.$XQ.Q.).8Xf f E V (.'.W.T.T.",
"t Y w.1.S.J.Q b b t B.=Xd.*X{.( b z ' ` H c m ].&X&X&XK.I h ' A _.$XR.].k.B D D s J.7X&XA.&X=X_..X6X$XE.W.7XI.9 n M V (.'.R.@XY.",
"t Y w.t.S.J.! b z t N.*Xd.=X{.W b ` ' x b j I .X&X=X9XK.I f ' c ].#X_.[.k.B B h / H.8X9X&X7X7X&X.X.X].R.R.-XI.c n H D (.$XR.#XY.",
"t Y M.9.K.J.Q z z y m.&Xp.&XG.L b z ` z x h s ].@X].&XM.m g z k A.@XA.`.8.B i i ~ g.h.h.z.6.8.5.v.k.8.4.4.x.c.M z v K x.$Xi.@XY.",
"r Y w.1.S.J.! b b 9 e.&Xr.@XN.W v z ' x c j U .XA.A.@X6.s h J k C.W.p.].5.B D B f 8 # # 6 6 & $ @   O + O + O X ` v K (.'.i.Y.Y.",
"y Y M.1.S.J.M b b 9 6.Y.r.A.N.( [ b ' J G I U ].&X).@Xy.V j ' S A.@X).].8.B D A H 9 @ @ @ @ + . : % % < & & : 3 ` z D (.'.i.Y.d.",
"y Y t.1.K.J.M z ' - ,.@Xr.A.V./ H z J F S D V Z.).).).8.V D F D A.T.p.).5.B B F } n 9 > - - < 2 ; . % % + % : > _ ' D x.'.p.Y.t.",
"e Y w.1.K.J.| b ' - ,.Y.u.Y.F.o...J ] J ^ L V C.p.p.R.7.V S H G K.d.u.(.5.B D F z z n 3 9 n 2 2 _ _ B 2 < i ` 3 ` ` D (.'.u.Y.f.",
"7 Y K.1.K.J.! n H - >._.r.@XB.5.k.@.k.k.k.5.-.&Xp.p.@Xy.-.>.n.k.S.T.p.&X(.Z 8.(.c.L.L.P.c.b.n.k.@.@.}.k.k.P.P.` z z D x.@Xu.d.f.",
"r Z ;.,.K.v.<.f u u U m.p.S.Y.Y.A.).Z.Z.).A.S.W.p.p.d.i.A._._._.@XT.d.@XW.S.S.A.Y.A.J.A.A.A.A._.'._.).y.y.{.H.Y u p U 7._.i.u.i.",
"r Z ,.z.K.K.g.f m s 5.C.Z.p.f.0.r.q.q.q.q.q.q.r.q.q.q.q.u.u.u.p.r.u.u.t.r.r.r.r.r.0.r.r.0.0.0.0.a.0.r.9.6.V.k.a a a C y._.p.u.u.",
"r V >.z.v.v.g.l u h o.b.N.M.S.t.Z.Z.Z.(.(.Z.Z.(.`.Z.`.`.`.].`.].A.Z.A.A.Z.Z.Z.A.Z.Z.S.Z.Z.A.A.A._.S.Z.Z.V.].b.p u p U l.{.S.t.p.",
"q V >.j.v.j.g.f 9 f @.}.H.H.&XJ.N.V.V.V.N.N.x.N.v.N.D.x.F.V.F.F.N.V.N.N.N.V.N.x.G.F.G.V.G.V.G.V.Z.C.B.b.b.b.@.y p p Y v.J.B.e.S.",
"0 V g.k.j.v. .c A F ..P.P.b.H.H.|.|.|.|.|.|.|.|.|.|.|.|.|.|.|.|. X|. X|. X X X X X X X|. X X X XH.H. XL.L.}.P.H h i W b.H.B.M.y.",
"< V >.k.j.j. .l g 2 g A i t p u w w w w y , w w , < , , , < , , , , , w w w y , , , , , , , , - - & 8 w : i y + h h ~ v.H.B.e.w.",
"q V 5.>.h.g. .l g ; . %   O @ O + + + + % . + + + + . . . . + + +   + + + + $ + + + @ . @ + + + @ O @ $   + - @ l j ~ z.J.M.e.M.",
"0 Z -.>.<.h.<.m W w % = $ * 8 * & $ = = % % & & = % = $ = $ $ $ $ $ $ $ $ & $ & & = = = = = = = 8 = 8 - @ # w - f s Y M.J.w.2.e.",
"7 d =.;.,.,.<.=.s u t e q e r r 7 0 8 0 0 0 q e 0 0 0 0 8 0 0 0 8 0 0 0 0 0 0 0 0 0 0 q q q q e 7 r 9 r u r r r s =.,.e.w.w.1.t.",
"7 d %.;.2.2.U.U.M.l.z.k.z.z.m.m.N.b.V.x.F.F.F.F.D.D.D.D.V.V.b.V.b.N.x.N.D.D.D.D.N.N.b.V.b.F.D.D.H.D.B.D.K.G.B.G.M.K.K.S.t.t.1.1.",
"7 d ;.;.<.1.U.K.M.l.z.z.l.N.B.B.B.B.V.B.G.G.G.G.N.B.V.B.N.B.N.N.B.N.B.N.N.N.G.V.N.N.N.N.B.l.N.x.B.K.B.D.D.B.B.C.S.S.S.t.t.1.1.1.",
"6 d =.%.#.#.;.2.,.6.7.7.7.6.2.z.6.6.6.6.6.6.6.6.,.6.>.4.,.6.,.6.7.7.7.7.7.6.6.6.6.7.7.7.6.6.6.,.,.z.6.,.6.e.6.e.,.4.,.1.1.1.;.s.",
"= p -.:.$.=.<.<.6.z.5.7.z.7.z.,.m.m.m.m.l.M.M.l.7.m.l.6.7.m.e.l.m.m.x.m.m.l.m.m.m.m.x.l.l.l.l.7.z.l.l.l.m.e.m.m.7.6.e.e.6.;.-.%.",
"< D / >.<.<.,.,.>.>.5.5.k.z.z.M.m.m.m.M.M.l.l.e.m.m.m.N.m.M.N.m.l.l.l.l.l.l.l.l.l.l.l.l.l.l.l.8.z.7.z.l.l.l.7.l.7.l.l.m.7.5.-.Y ",
"5 g H K N N N ~ Y ~ / / / g.>.>.,.>.>.:.:.:.:.:.:.>.>.:.>.>.>.:.:.T :.T T T T T T T T T T T T :.T T T T -.-.-.-.U U R R R ( ( P ",
"5 2 1 : 6 9 r r 8 0 e e e 7 7 8 7 7 7 7 7 6 7 7 7 6 6 6 6 6 6 6 6 * * * * 8 * * * * 8 * 8 8 8 8 q q q q q q r q a a e 0 0 0 e 0 "
};
