/* XPM */
static char *Screenshot_from_2024_11_03_17_46_331730645366[] = {
/* columns rows colors chars-per-pixel */
"64 64 251 2 ",
"   c #0C0606",
".  c #03010B",
"X  c #0B030B",
"o  c #0D090A",
"O  c #130506",
"+  c #12040A",
"@  c #1A0609",
"#  c #140B0C",
"$  c #1C0B0C",
"%  c #19110E",
"&  c #0B0312",
"*  c #0B0713",
"=  c #150B12",
"-  c #1A0C13",
";  c #160C1E",
":  c #1C1313",
">  c #191415",
",  c #280A07",
"<  c #230C0C",
"1  c #340B06",
"2  c #24110D",
"3  c #2E1409",
"4  c #2B130D",
"5  c #33140B",
"6  c #3A180A",
"7  c #250E11",
"8  c #241413",
"9  c #2B1514",
"0  c #231916",
"q  c #2B1917",
"w  c #22151B",
"e  c #251B19",
"r  c #2B1C1B",
"t  c #371A14",
"y  c #331C1C",
"u  c #3F220E",
"i  c #27201D",
"p  c #2D201D",
"a  c #362315",
"s  c #3C2313",
"d  c #35211C",
"f  c #3C231C",
"g  c #181128",
"h  c #271A26",
"j  c #361E21",
"k  c #281E37",
"l  c #2D2221",
"z  c #2F252B",
"x  c #332323",
"c  c #3B2423",
"v  c #3D2A24",
"b  c #372829",
"n  c #3C2C2B",
"m  c #322739",
"M  c #451A0A",
"N  c #571B0A",
"B  c #451B13",
"V  c #611E0C",
"C  c #46220D",
"Z  c #4C230D",
"A  c #57280B",
"S  c #5B320D",
"D  c #432413",
"F  c #492719",
"G  c #552616",
"H  c #532B13",
"J  c #5B2D13",
"K  c #4A301D",
"L  c #5D3413",
"P  c #56331C",
"I  c #5C331B",
"U  c #682B0B",
"Y  c #722F0F",
"T  c #64310A",
"R  c #763909",
"E  c #652B15",
"W  c #683715",
"Q  c #62351A",
"!  c #643A1D",
"~  c #763918",
"^  c #462825",
"/  c #442A25",
"(  c #4C2C23",
")  c #422D2A",
"_  c #4F2D2A",
"`  c #4C3326",
"'  c #45332C",
"]  c #4B322C",
"[  c #533224",
"{  c #593726",
"}  c #443432",
"|  c #4C3835",
" . c #4C3A34",
".. c #543C35",
"X. c #5A3D33",
"o. c #762F20",
"O. c #643C23",
"+. c #673A27",
"@. c #763B24",
"#. c #7C430C",
"$. c #6D431B",
"%. c #74431A",
"&. c #7A4718",
"*. c #5A4339",
"=. c #6B442A",
"-. c #784928",
";. c #7D542A",
":. c #684737",
">. c #774A34",
",. c #724C34",
"<. c #7B5439",
"1. c #281E40",
"2. c #352C49",
"3. c #332D4E",
"4. c #3B3355",
"5. c #493950",
"6. c #413F67",
"7. c #564441",
"8. c #4D425E",
"9. c #644A45",
"0. c #734E45",
"q. c #69544B",
"w. c #765648",
"e. c #6B5755",
"r. c #755957",
"t. c #7A615C",
"y. c #514A6F",
"u. c #68586E",
"i. c #7B6665",
"p. c #843B0B",
"a. c #843E17",
"s. c #813C28",
"d. c #894711",
"f. c #874818",
"g. c #964D15",
"h. c #9C5516",
"j. c #94531C",
"k. c #9B531C",
"l. c #A34E12",
"z. c #A75719",
"x. c #B65D1C",
"c. c #B7631E",
"v. c #874A27",
"b. c #934D24",
"n. c #885529",
"m. c #975727",
"M. c #844A33",
"N. c #875737",
"B. c #975A35",
"V. c #A65C26",
"C. c #B75F20",
"Z. c #A15C36",
"A. c #92612E",
"S. c #8C6236",
"D. c #946238",
"F. c #AB6227",
"G. c #B66528",
"H. c #A76336",
"J. c #B56736",
"K. c #C76C28",
"L. c #C56D34",
"P. c #CB7437",
"I. c #D7793A",
"U. c #E37F3E",
"Y. c #855E46",
"T. c #885C4F",
"R. c #8A654B",
"E. c #9A634A",
"W. c #87665A",
"Q. c #956C55",
"!. c #B66D44",
"~. c #AD7050",
"^. c #876A64",
"/. c #8D726C",
"(. c #97776B",
"). c #967C76",
"_. c #9B7E79",
"`. c #A67C6F",
"'. c #C97847",
"]. c #D57C45",
"[. c #CA7D55",
"{. c #C27F60",
"}. c #96817C",
"|. c #9D827B",
" X c #AD8B73",
".X c #A2857D",
"XX c #A7887C",
"oX c #B48778",
"OX c #D2814E",
"+X c #DA8555",
"@X c #E68649",
"#X c #E98A56",
"$X c #F39255",
"%X c #CF916F",
"&X c #E7956E",
"*X c #FAA57A",
"=X c #9B8683",
"-X c #A58A82",
";X c #A78A86",
":X c #AC8B84",
">X c #B18D85",
",X c #B48D88",
"<X c #AD9288",
"1X c #B39285",
"2X c #BA9486",
"3X c #B5938A",
"4X c #BB958A",
"5X c #B89988",
"6X c #BD9A8C",
"7X c #BC9C93",
"8X c #BA9E98",
"9X c #BDA49C",
"0X c #B8AAA2",
"qX c #C79487",
"wX c #C29B8E",
"eX c #CA9D8E",
"rX c #D39B83",
"tX c #C49C92",
"yX c #CA9E93",
"uX c #C09F99",
"iX c #CBA28D",
"pX c #DAA48B",
"aX c #CDA394",
"sX c #C8A599",
"dX c #D3A595",
"fX c #D6A996",
"gX c #DBAA96",
"hX c #D4A699",
"jX c #DAA698",
"kX c #D6A99A",
"lX c #DBAB9A",
"zX c #F7AA85",
"xX c #F3B189",
"cX c #E3AB97",
"vX c #E2AD9D",
"bX c #E4B19D",
"nX c #EAB39E",
"mX c #CCAEA4",
"MX c #D7ACA2",
"NX c #E4AFA1",
"BX c #E9B6A3",
"VX c #ECB4A2",
"CX c #F1B6A4",
"ZX c #F3B9A4",
"AX c #FABDA4",
"SX c #F7BDAC",
"DX c #F0C49A",
"FX c #E8C1A8",
"GX c #FCC1A4",
"HX c #F9C5AC",
"JX c #FCCDB1",
/* pixels */
"8X8X8X8X8X8X8X8X8X8X8X8XuX8X9XuXsXsXsXsXmXsXmXhXmXsX9X^.*.*.| ) v  ...n r b r.;X<X<X;X;X;X;X;X;X;X;X=X=X=X=X=X=X).=X|.}.).).).).",
"6X7X7X6XtXtXtXaXaXyXyXsXaXhXyXmXdXaXsXkXkXkXjXlXhX>XW.:.*...` / / | | ' x r h e.<X5X<X<X<X<X:X;X;X;X;X;X.X.X|.|.|.}._._._._.).).",
"4X7X7XwXtXaXaXaXaXaXhXyXdXdXkXkXkXkXhXhXkXgXfXkX X..7.:.` _ X.X./ ' ] n n c c ] r.3X3X3X<X<X,X;X>X:X;X-XXX;X;X.X.X|.|._._.|.}.).",
"wX7XtXyXtXaXaXaXhXhXhXhXdXjXjXjXjXlXMXlXkXgXlXaXX.v n v _ X.9._ v ) ] ..] t ^ 5.*.).3X3X3X3X3X,X>X:X:X:X;X;X.XXX.X.X.X|.|.|.).|.",
"wXwXyXyXyXyXaXdXkXhXdXjXjXjXjXlXkXlXlXjXlXjXNX(.y 9 9 7 1 t B 9 q y ^ B M M t b 7.t.-X3X4X2X4X4X,X,XXX>X:X:XXXXX-X_..X.X=X.X_._.",
"eXeXyXyXhXhXfXlXjXjXlXvXcXjXlXvXbXlXNXvXNXlXhXX.7 @ , 6 F E G M 1 1 N o.v.v.G , x *.).5X4X3X,X4X3X,X>X>X>X:X:X:X-X;X.X.X|.=X.X_.",
"qXeXdXdXdXjXlXlXlXMXvXlXlXvXNXvXcXbXNXNXvXNXoXy - @ 6 @.E.b.s.Y ~ a.b.k.x.J.s.1 2 a *.oXqX3X3X3X3X4X,X,X>X>X>X:X;X-X.X.X;X|..X_.",
"yXyXhXjXMXlXlXMXlXvXNXvXvXNXNXvXbXvXNXNXNXNX^.w @ 5 M.~.!.V.V.k.z.V.z.x.G.L.J.J , 8 r (.wX4X7X4X3X3X3X3X>X>X>X;X;XXX:X;X.X.X.X.X",
"yXhXjXlXvXvXvXvXNXbXbXbXbXvXbXbXbXbXnXnXnXMXX.7 7 X.~.OX[.L.G.G.V.x.G.K.P.I.P.V.M , < 0.wXwX4X4X4X5X3X3X3X,X,X;X:X:X:X:X.X.X_.XX",
"dXjXMXvXvXVXbXcXBXBXBXbXVXVXBXVXnXnXBXnXBXiX/ < B ~.+XOXOX'.P.J.L.G.L.].U.U.U.K.s., < ] 2XwX7X4X6X4X3X3X3X3X,X,X:X:X:X;X:X-X:X_.",
"dXjXNXcXVXNXnXVXBXCXCXCXCXCXCXVXZXnXCXCXFX4Xy 4 +.{.+X+X+X+X].].P.I.].@X$X@XU.I.J.G < y (.yXwXwX4X6X3X3X3X3X3X3X>X:X:X:X:X:X:X.X",
"dXcXNXVXVXNXnXnXCXCXCXCXCXCXCXCXnXCXCXCXFXXXt 9 M.{.+X#X+X#X@X@X@X@X$X$X$X$XU.I.L.-., < ^.uXwX7X7X4X4X3X3X3X3X<X,X:X,X;X:X;XXXXX",
"pXjXNXVXVXvXVXCXAXCXCXCXZXZXZXBXCXCXCXZXSX`.9 t E.&X#X[.+X[.].].I.@X@X@X@X@X@X@X'.B.1 7 ^.tXtXtX7X6X4X4X4X4X,X3X<X<X,X;X:X>X;X-X",
"dXcXNXVXCXbXVXCXCXCXAXCXZXZXSXZXCXCXCXZXSX`.7 t ~.%X&X%X[.!.L.'.P.P.I.].OX].'.OX].Z.1 < ^.yXyXtXtX4X6X6X4X3X3X3X3X3X<X>X:X:X:X-X",
"pXcXCXCXZXxXZXAXAXAXSXSXAXAXAXAXCXCXSXCXSX`.9 B ~.E.@.+.+.@.v.H.G.G.V.b.v.o.Q W b.E.B 7 W.yXuXuXtX7X7X6X4X4X3X3X3X3X3X>X>X>X:X-X",
"cXVXCXAXAXZXAXAXAXAXAXAXAXAXAXAXAXAXSXCXSXoX1 _ T.N M , , , M Y h.z.R M 1 1 6 N V M.G 7 (.yXyXyXtXtXwX6X7X4X3X8X3X3X3X1X1X>X>X:X",
"%X%XrXrXrXrXgXGXGXGXGXGXGXGXDXGXGXGXGXGXGXeXy >.M.L P F 5 , 1 A l.z.U M B ( +.s.~ v.{ t ,XyXyXyXyXtXtX6X6X4X4X3X4X3X3X1X3X>X>X:X",
"qXMXBXBXBXFXHXJXJXJXJXJXJXJXJXJXHXGXHXGXHXMX( 0.-.@.+.[ _ G 1 U V.c.p.U N F +.@.f.b.+.` tXhXsXyXyX8XtXtX6X6X4X4X3X4X3X3X3X,X>X1X",
"r.W.W.W.W.^.(.|.`.|. X X XoXiXsXaXfXfXfXjXlXX.Y.M.W G 1 B o.G E G.K.g.U B M B G ~ B.+._ aXaXaXyXtXtXtXtX7X6X4X4X4X4X3X3X3X3X1X1X",
"_ t c c c f / ` ` `  .X.=.*.,.w.w.w.w.w.0.0.X.M.n.E +.^ { @.E Y L.I.l.~ o.B @.~ f.F.@.9.aXdXaXaXaXtXtXtXwXwX6X6X7X4X4X3X3X1X1X>X",
"` y y a d v v ' '  .*.*.*.*.9.q.q.q.q.9.*.*.^ Y.Z.M.o.G J ~ a.a.'.U.x.a.Y Y Y a.z.J.@./.dXaXaXaXiXeXeXtXtX4X6X4X4X4X4X3X3X3X1X1X",
"` 9 $ # # % 2 8 q q r p b n n  . . .7.7...} c M.!.B.f.U U p.b.Z.'.U.C.a.d.p.d.l.C.J.>.`.fXdXdXaXaXyXyXtXtXtXwX4X4XwX4X3X3X3X3X,X",
"` q 2 # # @ $ $ % 2 2 2 : 0 q q w 8 q 9 7 $ 7 M.!.!.Z.b.a.g.V.Z.].$XK.x.l.l.z.x.K.L.M.`.fXdXhXaXsXtXyXyXtXwXwX7XwX4X4X4X3X3X3X3X",
"` a f q q d v / ' ' *.*.*.*.7.9.9.9.:.5. ._ ^ >.!.!.J.F.V.F.Z.J.[.U.K.x.x.x.K.K.K.L.M.qXkXaXhXsXiXsXtXyXtXwXwX4X6XwX7X4X4X3X3X3X",
"` d ' d d f ( [ X.X.:.:.w.r.R.W.^.^.W.W.W.0.X.@.~.!.J.J.J.F.V.!.&XU.L.C.K.K.K.K.K.G.M.qXdXhXhXaXsXyXyXyXtXwXwX6X6X6X4XqX3X4X3X3X",
"( a ] a a D F H G P I { { { =.:.,.:.:.:.X.X.X.Y.Z.Z.Z.F.G.V.m.[.*X&X].C.K.K.K.K.K.F.s.rXjXhXhXaXsXhXyXyXtXwXwXwX6X7XwXwX4X3X1X3X",
"( s ` a u F I I O.Q O.{ +.=.:.,.,.:.,.=.:.` X.Q.E.Z.Z.J.G.b.Z.!.'.].'.C.x.K.K.K.G.F.B.rXjXMXaXaXyXsXsXtXtXwXtXwXwX6X7X6X4X4X3X3X",
"/ f ] a s P Q ! +.O.O.=.,.<.<.R.R.R.Q.Q.Q.<.{ N.B.B.Z.V.V.a.M.s.b.l.b.z.x.x.K.K.F.F.'.*XjXhXhXyXdXyXaXtXtXtXtXwXtX7X6X4X4X4X7X3X",
"^ f ` s s P L ! O.O.O.=.=.,.<.R.R.R.Q.Q.Q.<.K ;.M.B.Z.F.k.f.E N Y ~ Y f.x.x.G.c.z.F.OXpXjXjXhXaXyXyXyXyXtXtXtXwXtX7X7X6XqX3X4X3X",
"^ f ` a s S L I O.! O.I I { O.=.<.R.R.R.W.<.K =.M.B.B.Z.V.H.n.Q E &.f.m.x.C.F.z.V.F. XpXjXjXkXhXdXaXaXaXaXtXtXeXwXtX6X7X4X4XwX4X",
"f F [ u s H S L W Q I L +.-.-.O.P <.R.<.w.,.K =.>.N.m.m.Z.H.B.v.&.f.d.j.F.F.V.z.h.D.&XvXlXjXfXdXdXaXaXeXeXyXwXtXtXwX7X6X6X6X2X2X",
"f K { C D H S S T L L ! =.-.>.N.=.L L I <.,.C P -.;.n.m.m.B.n.n.f.f.d.j.m.V.h.m.j.E.gXlXlXjXfXdXaXaXdXaXyXtXtXtXwXwX6X6X6XwX4X2X",
"a K P u C H S L L S L L $.$.;.<.<.<.;.P ,.,.D D { ;.v.b.v.M.N.M.n.b.b.b.b.j.j.m.j.OXfXlXfXfXfXfXdXaXaXaXyXtXwXwXtXwXwX4XwXwX4X3X",
"v K =.u 6 A H L L S L $.=.%.-.S.S.<.;.P ;.,.C C F =.-.&.~ E G N E E Y s.&.d.j.j.n.%XlXlXgXfXkXfXdXaXdXiXaXtXtXwXtXeXwXwX6X4XqX2X",
"v K =.a 6 H H L L S L W %.&.;.S.D.S.<.$.<.,.s s F -.n.&.E A E V N N V V U #.f.n.m.pXbXgXgXkXfXfXdXaXdXaXtXtXtXtXwXwXwX6X4X2X4X2X",
"f K K 6 6 F Z H S H S W $.-.;.S.D.S.S.$.<.,.u ` (.2XoX-.W @.@.@.o.o.o.a.d.#.&.f. XbXgXgXlXkXfXfXdXdXdXiXaXiXeXtXtXwXwXwXwXwX3X2X",
"v s K 3 6 u C A Z S S T $.&.&.A.A.A.S.$.R.w.D *.XX7X2X-.W W E N A U R #.d.#.%.&.%XBXbXlXlXlXjXdXdXaXfXiXiXiXtXeXwXwXwX6X4X6X2X2X",
"f a v 3 3 M 6 A Z H S W $.&.&.n.A.S.;.,.R.:.[ w.^ c _ I Q W T A A T R #.#.#.#.n.%XbXbXMXlXjXjXdXdXaXfXiXiXeXtXtXwXwX6X6X6X6X5X2X",
"a a s 3 3 6 6 Z Z Z A S $.#.#.n.;.;.S.<.W. .:.r.j O y :.,.@.%.~ ~ f.f.d.&.#.&.n.pXcXlXlXlXlXdXdXaXaXdXaXaXyXtXtXwXwXwX6X6X6X5X2X",
"p 3 a % 3 6 6 C Z Z A S $.$.&.;.;.&.;.<.0X0X<X^.j @ j 9.w.+.-.-.&.&.&.&.%.%.f.n. XbXcXlXlXkXkXhXdXaXaXaXyXtXtXeXwXwXwX6X6X6X5X2X",
"p 4 0 2 3 5 6 C C Z Z A %.&.&.n.&.&.;. X}.e.n v l x r y j t O.! $.$.$.$.R R f.-.w.MXcXlXlXfXfXdXaXdXaXhXyXyXtXtXwXwXiX7X6X6X6X5X",
"i 2 4 < 3 5 6 C C Z Z U v.D.N.;.$. X X}.w.x % n t./.7.w + - f ( H S S S T R j.@._ yXcXlXlXfXfXdXaXaXaXaXaXyXtX7X6XwX6X7X6X6X6X5X",
"r < 2 < 2 t 3 C C M C S $.n.-.=.w.FX5Xq.j h x } r.i.7.> & & = y C Z A A R d.j.L t 2XvXgXjXfXfXaXdXaXaXyXyXyXsX7XwXwX7X6X6XwX6X6X",
"r $ % < 2 5 3 B t 6 C H O.=.=.=.t.W.e.l 8 z h > ; > = * & & & - s S T #.#.g.j.D 8 XXvXgXkXdXdXaXaXdXaXyXyXyXtXtXwX7X6X6X5XwX5X5X",
"r $ $ $ 2 5 4 t 6 s ` P =.{ X.*.+.5.b - h h X . . X . . . . . X 4 ! ~ d.g.g.f.6 w ^.MXMXdXhXaXaXaXaXeXeXtXtXtXtXiX7X6X6X6X6X5X2X",
"r # $ - 8 4 4 t f `  ... ... . .7.) - - > * . . . . . . . . . . @ H d.g.g.h.&.< w 5.^.mXMXaXaXdXdXaXeXyXyXtXtXtX7X6X6X6X6X6X4X6X",
"r + # $ < 7 , y ' ' } } ' } '  . .w * - * . . . . . . . . . . . X t %.g.l.h.L o g 5.h r.8XMXhXdXaXaXeXeXeXtXtXwXwX6X6X6X4XwX4X2X",
"r # O # < 4 < c ' n } } } ' } } z o * = X * . . . . . . . . . . . $ ~ k.h.d.D   k 5.h 9 | /.uXsXaXeXeXiXtXiX6XwXwX6X6X5XqX4X2X4X",
"r X + # < , < j ) ) } } } ' n n e X * * X . . . . . . . . . . . . @ Q k.h.&., X m 8.h w r d 9.<XsXsXeXwXeXwXwXwXwXtX6X5X6X4X2X2X",
"e + + O < < < j n b n m n n b c : . & X . . . . . . . . . . . . . X L k.j.E + & m 8.k w e r r ) ^.sXsXeXqXwXeXwXtX4X6X5X2X4X2X4X",
"r + X @ < 7 @ j b z n n n n b x - X * & . . . . . . . . . . . . . o J j.f.5 X * 2.y.k h e r l x x 7._.sXtXwXwXwX6X6X6X6X3X4X4X,X",
"w X X + @ 7 7 q j x b n n b x l - . X . . . . . . . . . . . . . . X P b.E , + & 4.u.2.> : e i l x l c 7..XsXwX6X6X5X6X5X3X4X4X,X",
"8 + X + < < < 8 l l z n b x x r $ X X . . . . . . . . . . . . . X + J b.N , + ; 4.4.k w 8 q q p d l l y ) e.<X7X5X5X6X3X4X8X3X,X",
"8 X X X @ , < : l p b b n x p r $ X X & . . . . . . . . . . . . & O W f.M , @ h 4.g k > 0 0 e r r l r l c x  ./.7X7X6X3X3X4X3X3X",
"8 + X O @ < < # : p b n b d r 4 < + X & . . . . . . . . . . . . X @ W g.N 6 9 z 4.g k > 8 0 0 i r p l l x x l d *.).3X3X,X4X3X3X",
"7 X X + $ < 2 @ 8 e j x c y t { ` $ X X . . . . . . . . . . .   o 1 f.g.E B h 2.3.g > > > 0 0 0 e r p l h l l x l c r.8X3X4X3X,X",
"7 X X X $ < q # = 8 t f *.R.`.%XY.< + X . . . . . . . . .   . o @ T V.h.E ^ k 2.1.k > > > 8 > e 0 i i p q p p p l l p e.5X3X3X3X",
"8 + X + @ 2 x > X 7 :.oXDXDXxX&XB.y + & & . . . . . . . . . . O M k.G.m.G z k 4.k g = > % 8 r > % 0 0 0 0 i i i p i l d /.5X<X<X",
"9 X X X + r x e O 0.cXAXDXDX*X#Xv.F : + X . . . . . . . . . . % %.G.G.m./ 1.2.3.k ; = = % 2 > > % 0 0 0 0 0 i i 0 i p q *.<X X5X",
"8 + X X @ q x p _ dXzXzX*X*X*X&X-.s 8 X X . . & & . . . X . o 6 j.G.G.$.| 3.3.4.h = # $ % % > % % 0 0 0 i 0 0 0 0 0 r 0 v XXXX:X",
"2 O X X o : > 0 W.nXzXzX*XxXxX*XE.M < # X . o & & & . & X . O P F.J.~ [ y.y.6.3.; = = = - - # # % 0 0 0 i : 0 0 0 0 0 i p }. XXX",
"8 X . X > e o # 0.~.&X&X*X*XxXxX%XP # X X . & X . & . & X . < v.G.g.G 5.y.y.6.1.* # # # ; - $ % 0 : : : > > : 0 > 0 0 0 p i..XXX",
"%   X   > o = + ^ @.E.~.E.Q.Q.~.Q.( o o X X o . . X . & X & 9 <.n.A / 8.y.y.6.k X o # + # $ # % > > > % % > % % > % o % o *.e.q.",
"o o o . o   o = 9 j ( [ _ F F ` ` 9   o . X . . . . . . X X < P F 5 z m 2.3.3.;   o o o o o o # o # # o o o o o o o o o o i i i "
};
